<?xml version="1.0" encoding="UTF-8"?>
<!-- Generator: visioncortex VTracer 0.6.3 -->
<svg version="1.1" xmlns="http://www.w3.org/2000/svg" width="1280" height="793">
<path d="M0 0 C3.01 -0.11 5.76 -0.05 8.75 0.19 C9.95 0.25 9.95 0.25 11.17 0.32 C15.79 0.63 19.62 1.47 24 3 C27.04 3.34 30.05 3.5 33.1 3.66 C36.08 4.01 38.23 4.89 41 6 C43.41 6.41 45.83 6.76 48.25 7.06 C54.9 7.9 54.9 7.9 56 9 C59.49 9.54 62.98 9.97 66.48 10.4 C69.64 10.94 72.09 11.72 75 13 C76.11 13.31 77.23 13.62 78.38 13.94 C84.23 15.65 89.58 18.23 95 21 C95 21.66 95 22.32 95 23 C95.86 23.15 95.86 23.15 96.74 23.3 C106.38 26.28 112.37 37.73 117 46 C118.57 49.27 119.85 52.56 121 56 C121.28 56.78 121.57 57.56 121.86 58.37 C123.48 62.92 124.34 67.2 125 72 C125.32 72.6 125.63 73.2 125.96 73.82 C127.26 76.55 127.62 79.08 128.06 82.06 C128.53 85.2 129 87.99 130 91 C130.2 92.76 130.36 94.53 130.5 96.3 C130.58 97.34 130.66 98.38 130.75 99.45 C130.83 100.54 130.91 101.63 131 102.75 C131.57 110.64 131.57 110.64 132.55 118.48 C133.23 123.82 133.19 129.13 133.19 134.5 C133.19 135.66 133.19 136.82 133.19 138.02 C133.14 145.36 132.69 152.35 131.5 159.6 C130.76 164.61 130.56 169.61 130.34 174.66 C129.99 178.05 129.15 180.8 128 184 C127.66 185.58 127.34 187.16 127.06 188.75 C124.41 202.48 119.13 216.19 110 227 C109.34 227 108.68 227 108 227 C107.67 227.99 107.34 228.98 107 230 C106.34 230 105.68 230 105 230 C104.67 230.99 104.34 231.98 104 233 C101.5 234.82 101.5 234.82 98.44 236.69 C97.43 237.31 96.41 237.93 95.37 238.57 C94.59 239.04 93.81 239.52 93 240 C93.68 240.85 94.36 241.69 95.06 242.56 C97.8 246.38 99.81 250.45 101.81 254.69 C102.13 255.34 102.44 255.99 102.76 256.67 C104.34 260.09 105 262.16 105 266 C105.66 266 106.32 266 107 266 C113.72 284.24 113.72 284.24 115.54 292.89 C116.77 298.54 118.62 304.06 120.28 309.6 C122.1 315.66 123.7 321.75 125.21 327.89 C125.94 330.77 126.71 333.64 127.5 336.5 C129.39 343.37 131.09 350.29 132.79 357.21 C134.02 362.22 135.3 367.13 137 372 C144 395.33 144 395.33 144 405 C137.52 407.49 131.46 408.6 124.56 409.12 C122.79 409.27 121.02 409.42 119.25 409.57 C118.48 409.63 117.71 409.69 116.92 409.75 C114.92 409.9 114.92 409.9 113 411 C106.72 411.57 106.72 411.57 104.19 409.56 C103.11 407.23 102.59 405.36 102.07 402.87 C101.1 398.38 99.94 393.98 98.69 389.56 C98.47 388.8 98.26 388.03 98.04 387.24 C97.14 384.02 96.23 380.8 95.31 377.58 C90.61 361.01 90.61 361.01 89.46 353.95 C88.94 351.75 88.02 350.01 87 348 C86.64 346.66 86.33 345.3 86.06 343.94 C83.36 331.11 79.57 318.25 75.25 305.88 C74.01 302.29 73.52 298.76 73 295 C72.35 293.66 71.68 292.33 71 291 C70.51 289.09 70.02 287.19 69.56 285.27 C67.73 277.84 65.29 270.91 62 264 C61.26 262.39 61.26 262.39 60.5 260.75 C57.63 255.48 55.23 253.14 50 250 C45.05 249.67 40.1 249.34 35 249 C34.67 304.77 34.34 360.54 34 418 C26.42 420.53 21.41 421.58 13.75 421.88 C12.78 421.93 11.82 421.99 10.82 422.05 C9.42 422.12 9.42 422.12 7.98 422.18 C6.73 422.24 6.73 422.24 5.44 422.3 C2.2 421.9 0.56 421.05 -2 419 C-2.62 415.96 -2.62 415.96 -2.62 412.14 C-2.63 411.44 -2.63 410.73 -2.64 410.01 C-2.66 407.63 -2.63 405.25 -2.61 402.87 C-2.62 401.15 -2.62 399.43 -2.63 397.72 C-2.65 392.99 -2.63 388.26 -2.61 383.53 C-2.59 378.43 -2.6 373.33 -2.61 368.24 C-2.62 358.25 -2.61 348.26 -2.58 338.27 C-2.55 326.65 -2.55 315.02 -2.55 303.4 C-2.55 282.67 -2.53 261.94 -2.49 241.2 C-2.45 221.07 -2.43 200.93 -2.43 180.8 C-2.43 179.56 -2.43 178.32 -2.42 177.04 C-2.42 175.8 -2.42 174.56 -2.42 173.29 C-2.42 170.79 -2.42 168.3 -2.42 165.81 C-2.42 164.58 -2.42 163.35 -2.42 162.09 C-2.42 142.92 -2.4 123.76 -2.38 104.6 C-2.37 97.64 -2.37 90.68 -2.37 83.73 C-2.36 72.7 -2.35 61.67 -2.32 50.64 C-2.31 45.59 -2.31 40.55 -2.31 35.51 C-2.31 30.89 -2.3 26.28 -2.28 21.67 C-2.28 20 -2.28 18.32 -2.28 16.65 C-2.28 14.39 -2.27 12.12 -2.26 9.86 C-2.26 8.6 -2.26 7.34 -2.25 6.04 C-2 3 -2 3 0 0 Z M35 77 C32.85 79.15 33.84 84.18 33.84 87.17 C33.83 88.13 33.83 89.09 33.82 90.09 C33.81 93.29 33.8 96.48 33.8 99.68 C33.79 101.9 33.79 104.11 33.78 106.32 C33.77 110.97 33.76 115.62 33.76 120.26 C33.75 126.23 33.73 132.2 33.7 138.16 C33.68 142.74 33.68 147.31 33.68 151.88 C33.67 154.08 33.67 156.28 33.65 158.48 C33.64 161.56 33.64 164.63 33.64 167.7 C33.63 168.62 33.63 169.53 33.62 170.48 C33.62 171.31 33.63 172.15 33.63 173.01 C33.63 173.73 33.63 174.46 33.63 175.21 C33.87 177.42 33.87 177.42 37 179 C42.27 180.03 47.47 180.19 52.82 180.24 C54.05 180.25 54.05 180.25 55.31 180.26 C57.04 180.28 58.76 180.29 60.49 180.3 C62.25 180.31 64.01 180.33 65.77 180.36 C68.33 180.4 70.89 180.42 73.45 180.43 C74.62 180.45 74.62 180.45 75.82 180.48 C80.89 180.46 83.41 179.57 87 176 C87.54 175.57 88.07 175.13 88.62 174.69 C99.6 161.22 97.89 135.1 96.38 118.85 C95.88 115.09 95.09 111.64 94 108 C93.69 106.82 93.38 105.65 93.06 104.44 C91.37 98.97 89.28 93.71 86 89 C85.34 89 84.68 89 84 89 C83.5 87.51 83.5 87.51 83 86 C77.42 82.76 71.62 82.27 65.29 81.47 C62 81 62 81 58.44 79.94 C54.01 78.73 49.68 78.51 45.11 78.22 C42.62 78.04 40.21 77.78 37.75 77.38 C36.84 77.25 35.93 77.13 35 77 Z " fill="#000000" transform="translate(805,107)"/>
<path d="M0 0 C2.46 0.02 4.93 0.02 7.39 0.02 C8.96 0.03 10.53 0.03 12.1 0.04 C13.2 0.04 13.2 0.04 14.33 0.04 C19.43 0.09 19.43 0.09 20.54 1.21 C20.64 3.47 20.67 5.74 20.67 8 C20.67 9.07 20.67 9.07 20.68 10.16 C20.68 12.52 20.68 14.88 20.68 17.24 C20.68 18.87 20.68 20.5 20.68 22.14 C20.68 25.56 20.68 28.99 20.67 32.42 C20.67 36.82 20.67 41.22 20.68 45.62 C20.68 48.99 20.68 52.37 20.68 55.74 C20.68 57.36 20.68 58.99 20.68 60.61 C20.68 62.88 20.68 65.14 20.67 67.41 C20.67 68.7 20.67 69.99 20.67 71.32 C20.54 74.21 20.54 74.21 19.54 75.21 C14.46 75.87 9.34 76.22 4.23 76.64 C3.45 76.71 2.67 76.78 1.86 76.84 C-14.11 78.18 -30.09 78.91 -46.11 79.47 C-47.02 79.51 -47.93 79.54 -48.87 79.58 C-50.58 79.64 -52.28 79.7 -53.99 79.75 C-55.14 79.8 -55.14 79.8 -56.31 79.84 C-56.97 79.86 -57.63 79.89 -58.31 79.91 C-61.16 80.24 -61.16 80.24 -66.46 82.21 C-66.46 111.25 -66.46 140.29 -66.46 170.21 C-41.25 169.84 -41.25 169.84 -16.05 169.46 C-11.17 169.39 -11.17 169.39 -8.89 169.36 C-7.3 169.34 -5.7 169.31 -4.11 169.29 C-1.69 169.25 0.72 169.22 3.13 169.18 C3.84 169.17 4.55 169.16 5.29 169.14 C8.34 169.11 10.62 169.23 13.54 170.21 C13.57 179.84 13.58 189.47 13.59 199.1 C13.6 203.57 13.61 208.04 13.62 212.51 C13.63 216.83 13.63 221.14 13.64 225.45 C13.64 227.1 13.64 228.75 13.65 230.4 C13.66 232.7 13.66 235 13.66 237.3 C13.66 238.61 13.66 239.92 13.66 241.28 C13.54 244.21 13.54 244.21 12.54 245.21 C11.16 245.32 9.78 245.37 8.39 245.4 C7.5 245.41 6.61 245.43 5.7 245.45 C4.72 245.46 3.75 245.47 2.75 245.49 C1.74 245.51 0.73 245.52 -0.31 245.54 C-2.48 245.58 -4.65 245.62 -6.82 245.65 C-12.44 245.74 -18.05 245.85 -23.66 245.96 C-24.77 245.98 -25.87 246 -27.01 246.02 C-36 246.19 -44.98 246.41 -53.96 246.71 C-55.14 246.74 -56.32 246.78 -57.54 246.81 C-59.12 246.87 -59.12 246.87 -60.74 246.92 C-61.64 246.95 -62.53 246.99 -63.46 247.02 C-65.46 246.99 -65.46 246.99 -66.46 248.21 C-66.57 249.67 -66.6 251.15 -66.62 252.62 C-66.63 254.04 -66.63 254.04 -66.65 255.5 C-66.65 256.55 -66.66 257.61 -66.66 258.69 C-66.67 259.79 -66.68 260.9 -66.69 262.03 C-66.72 265.7 -66.75 269.36 -66.77 273.02 C-66.79 275.55 -66.82 278.09 -66.84 280.62 C-66.89 286.61 -66.93 292.61 -66.97 298.61 C-67.02 305.43 -67.08 312.26 -67.13 319.08 C-67.25 333.12 -67.36 347.16 -67.46 361.21 C-66.68 361.23 -65.9 361.26 -65.09 361.28 C-58.41 361.5 -51.73 361.72 -45.05 361.94 C-41.58 362.05 -38.1 362.16 -34.63 362.28 C-33.97 362.3 -33.3 362.32 -32.61 362.34 C-31.27 362.39 -29.93 362.43 -28.58 362.47 C-25.22 362.58 -21.86 362.69 -18.5 362.81 C-17.16 362.85 -15.82 362.9 -14.48 362.94 C-13.82 362.97 -13.16 362.99 -12.48 363.01 C-8.42 363.15 -4.35 363.27 -0.29 363.37 C1.69 363.42 3.68 363.48 5.66 363.54 C8.13 363.61 10.59 363.67 13.05 363.73 C14.14 363.76 15.23 363.79 16.36 363.83 C17.31 363.85 18.27 363.88 19.26 363.9 C21.54 364.21 21.54 364.21 23.54 366.21 C23.78 369.18 23.78 369.18 23.77 373.04 C23.77 373.74 23.77 374.45 23.77 375.17 C23.77 377.5 23.75 379.82 23.74 382.15 C23.73 383.76 23.73 385.37 23.73 386.99 C23.72 391.23 23.7 395.47 23.68 399.72 C23.66 404.05 23.65 408.38 23.64 412.71 C23.62 421.21 23.58 429.71 23.54 438.21 C-48.94 438.6 -48.94 438.6 -78.27 437.33 C-79.73 437.27 -79.73 437.27 -81.21 437.21 C-83.91 437.1 -86.6 436.97 -89.29 436.84 C-90.44 436.79 -90.44 436.79 -91.61 436.74 C-100.42 436.24 -100.42 436.24 -103.46 433.21 C-103.56 430.97 -103.58 428.73 -103.58 426.49 C-103.58 425.78 -103.58 425.06 -103.58 424.33 C-103.59 421.91 -103.58 419.49 -103.58 417.06 C-103.58 415.32 -103.58 413.58 -103.58 411.84 C-103.58 407.03 -103.58 402.22 -103.57 397.41 C-103.57 392.24 -103.57 387.06 -103.57 381.88 C-103.57 372.9 -103.57 363.93 -103.56 354.95 C-103.56 341.97 -103.55 328.99 -103.55 316.01 C-103.55 294.95 -103.54 273.89 -103.53 252.83 C-103.52 232.37 -103.52 211.91 -103.51 191.45 C-103.51 190.19 -103.51 188.93 -103.51 187.63 C-103.51 181.31 -103.51 174.99 -103.51 168.66 C-103.5 116.18 -103.48 63.69 -103.46 11.21 C-94.49 8.19 -86.01 6.84 -76.58 6.14 C-74.54 5.99 -72.5 5.83 -70.47 5.67 C-69.57 5.6 -68.68 5.54 -67.77 5.47 C-65.3 5.27 -65.3 5.27 -62.46 4.21 C-60.28 4.01 -58.1 3.86 -55.91 3.74 C-54.58 3.66 -53.24 3.58 -51.91 3.5 C-49.83 3.39 -47.75 3.27 -45.67 3.16 C-38.43 2.75 -31.3 2.23 -24.12 1.15 C-16.06 0.01 -8.12 -0.06 0 0 Z " fill="#000000" transform="translate(588.45751953125,94.794189453125)"/>
<path d="M0 0 C1.08 -0 2.16 -0 3.28 -0 C4.41 -0 5.55 0 6.71 0.01 C7.82 0 8.93 0 10.07 -0 C26.3 0.02 26.3 0.02 31.11 2.3 C36.52 8.73 36.03 20.86 36.34 28.88 C36.56 32.19 36.56 32.19 37.62 35.49 C38.8 39.66 39.25 43.65 39.65 47.95 C40.23 53.67 40.97 59.22 42.22 64.84 C42.72 67.48 42.94 70.08 43.15 72.76 C43.4 75.97 43.77 78.91 44.65 82.01 C45.65 85.57 45.92 89.01 46.15 92.7 C46.38 96.25 46.67 99.2 47.65 102.63 C48.93 107.1 49.08 111.44 49.37 116.07 C49.57 119.24 49.57 119.24 50.65 122.63 C51.91 127.04 52.09 131.29 52.31 135.85 C52.56 139.18 52.56 139.18 53.62 142.46 C54.84 146.8 55.26 150.97 55.65 155.45 C56.22 161.35 56.92 167.08 58.22 172.88 C58.72 175.5 58.95 178.09 59.15 180.76 C59.4 183.97 59.77 186.91 60.65 190.01 C61.94 194.6 62.08 199.24 62.31 203.98 C62.54 207.15 62.54 207.15 63.65 210.09 C65.13 214.58 65.1 219 65.31 223.7 C65.65 227.13 66.55 229.87 67.65 233.13 C67.88 235.27 68.05 237.42 68.15 239.57 C68.32 243.1 68.64 246.09 69.62 249.49 C70.8 253.66 71.25 257.65 71.65 261.95 C72.23 267.67 72.97 273.22 74.22 278.84 C74.72 281.48 74.94 284.08 75.15 286.76 C75.4 289.97 75.77 292.91 76.65 296.01 C77.94 300.6 78.08 305.24 78.31 309.98 C78.54 313.15 78.54 313.15 79.65 316.09 C81.13 320.58 81.1 325 81.31 329.7 C81.65 333.13 82.55 335.87 83.65 339.13 C83.88 341.27 84.05 343.42 84.15 345.57 C84.32 349.1 84.64 352.09 85.62 355.49 C86.8 359.66 87.25 363.65 87.65 367.95 C88.23 373.67 88.97 379.22 90.22 384.84 C90.72 387.48 90.94 390.08 91.15 392.76 C91.41 395.99 91.78 398.95 92.65 402.07 C93.87 406.44 94.06 410.81 94.37 415.31 C94.59 418.32 94.59 418.32 95.71 421.82 C96.87 425.91 97.24 429.9 96.65 434.13 C91.49 439.29 78.05 437.26 71.09 437.32 C69.63 437.34 69.63 437.34 68.13 437.36 C67.21 437.36 66.29 437.36 65.34 437.36 C64.51 437.37 63.68 437.37 62.82 437.38 C60.65 437.13 60.65 437.13 57.65 435.13 C55.91 430.65 56.27 425.39 56.03 420.64 C55.66 417.18 54.75 414.42 53.65 411.13 C53.42 408.85 53.25 406.55 53.15 404.26 C52.95 399.67 52.32 395.62 51.14 391.21 C50.3 387.62 50 383.99 49.65 380.32 C49.04 374.36 48.24 368.53 47.09 362.65 C46.47 359.09 46.17 355.53 45.9 351.93 C45.58 348.32 45.1 344.73 44.65 341.13 C23.86 341.13 3.07 341.13 -18.35 341.13 C-18.84 347.07 -18.84 347.07 -19.35 353.13 C-19.68 353.79 -20.01 354.45 -20.35 355.13 C-20.54 356.61 -20.69 358.09 -20.81 359.57 C-20.89 360.47 -20.97 361.36 -21.05 362.29 C-21.2 364.15 -21.36 366.02 -21.51 367.89 C-21.99 373.32 -22.77 378.54 -23.91 383.88 C-24.48 386.83 -24.7 389.75 -24.85 392.76 C-25.08 396.33 -25.35 399.63 -26.35 403.07 C-27.42 406.76 -27.62 410.36 -27.85 414.2 C-28.14 419.16 -28.88 423.37 -30.35 428.13 C-30.68 431.43 -31.01 434.73 -31.35 438.13 C-44.55 438.13 -57.75 438.13 -71.35 438.13 C-70.69 435.16 -70.03 432.19 -69.35 429.13 C-69.11 427.48 -68.9 425.83 -68.75 424.17 C-68.63 422.94 -68.63 422.94 -68.51 421.69 C-68.44 420.86 -68.36 420.04 -68.29 419.2 C-68.13 417.52 -67.97 415.84 -67.81 414.17 C-67.75 413.44 -67.68 412.71 -67.61 411.96 C-67.35 410.13 -67.35 410.13 -66.35 408.13 C-66.15 406.8 -66 405.47 -65.88 404.13 C-65.81 403.33 -65.73 402.53 -65.65 401.71 C-65.57 400.86 -65.49 400.01 -65.41 399.13 C-64.82 393.13 -64.11 387.29 -62.78 381.39 C-62.27 378.75 -62.05 376.13 -61.85 373.45 C-61.6 370.32 -61.26 367.84 -60.35 364.82 C-59.05 360.03 -58.92 355.36 -58.63 350.41 C-58.32 346.79 -57.35 343.63 -56.35 340.13 C-56.05 336.6 -55.85 333.08 -55.69 329.54 C-55.35 326.13 -55.35 326.13 -54.38 323.34 C-52.95 318.9 -52.67 314.51 -52.29 309.88 C-52.13 308.09 -51.97 306.29 -51.81 304.49 C-51.75 303.7 -51.68 302.91 -51.61 302.1 C-51.35 300.13 -51.35 300.13 -50.35 298.13 C-50.15 296.8 -50 295.47 -49.88 294.13 C-49.81 293.33 -49.73 292.53 -49.65 291.71 C-49.57 290.86 -49.49 290.01 -49.41 289.13 C-48.82 283.13 -48.11 277.28 -46.78 271.39 C-46.28 268.76 -46.05 266.17 -45.85 263.51 C-45.6 260.3 -45.23 257.35 -44.35 254.26 C-43.35 250.7 -43.08 247.26 -42.85 243.57 C-42.62 240.03 -42.34 237.11 -41.35 233.7 C-40.03 228.99 -39.91 224.4 -39.69 219.54 C-39.35 216.13 -39.35 216.13 -38.38 213.34 C-36.95 208.9 -36.67 204.51 -36.29 199.88 C-36.13 198.09 -35.97 196.29 -35.81 194.49 C-35.75 193.7 -35.68 192.91 -35.61 192.1 C-35.35 190.13 -35.35 190.13 -34.35 188.13 C-34.15 186.8 -34 185.47 -33.88 184.13 C-33.81 183.33 -33.73 182.53 -33.65 181.71 C-33.57 180.86 -33.49 180.01 -33.41 179.13 C-32.82 173.13 -32.11 167.29 -30.78 161.39 C-30.27 158.75 -30.05 156.13 -29.85 153.45 C-29.6 150.32 -29.26 147.84 -28.35 144.82 C-27.05 140.03 -26.92 135.36 -26.63 130.41 C-26.32 126.79 -25.35 123.63 -24.35 120.13 C-24.05 116.6 -23.85 113.08 -23.69 109.54 C-23.35 106.13 -23.35 106.13 -22.38 103.34 C-20.95 98.9 -20.67 94.51 -20.29 89.88 C-20.13 88.09 -19.97 86.29 -19.81 84.49 C-19.75 83.7 -19.68 82.91 -19.61 82.1 C-19.35 80.13 -19.35 80.13 -18.35 78.13 C-18.15 76.8 -18 75.47 -17.88 74.13 C-17.81 73.33 -17.73 72.53 -17.65 71.71 C-17.57 70.86 -17.49 70.01 -17.41 69.13 C-16.82 63.13 -16.11 57.28 -14.78 51.39 C-14.28 48.76 -14.05 46.17 -13.85 43.51 C-13.6 40.3 -13.23 37.35 -12.35 34.26 C-11.35 30.7 -11.08 27.26 -10.85 23.57 C-10.54 18.8 -9.76 14.71 -8.35 10.13 C-8.07 7.74 -7.85 5.36 -7.69 2.95 C-7.58 2.35 -7.46 1.75 -7.35 1.13 C-4.77 -0.16 -2.89 0 0 0 Z M10.65 121.13 C10.6 121.68 10.55 122.23 10.5 122.79 C8.8 141.15 8.8 141.15 7.09 149.62 C6.59 152.52 6.36 155.39 6.15 158.32 C5.91 161.68 5.59 164.77 4.65 168.01 C3.28 172.81 3.22 177.7 3 182.67 C2.65 186.13 2.65 186.13 1.65 189.6 C0.59 193.37 0.31 196.72 0.15 200.63 C-0.01 204.45 -0.24 207.75 -1.31 211.43 C-2.66 216.24 -3.02 220.97 -3.41 225.95 C-3.56 227.83 -3.72 229.71 -3.88 231.59 C-3.95 232.41 -4.01 233.24 -4.08 234.09 C-4.35 236.13 -4.35 236.13 -5.35 238.13 C-5.55 239.57 -5.71 241.01 -5.85 242.46 C-5.97 243.75 -5.97 243.75 -6.1 245.08 C-6.18 245.98 -6.26 246.89 -6.35 247.82 C-6.51 249.6 -6.68 251.37 -6.85 253.14 C-6.92 253.93 -6.99 254.72 -7.07 255.53 C-7.41 258.74 -7.89 261.94 -8.35 265.13 C5.51 265.13 19.37 265.13 33.65 265.13 C33.69 259.07 33.69 259.07 32.71 253.45 C31.88 249.62 31.42 245.91 31.15 242.01 C30.91 238.62 30.6 235.51 29.65 232.26 C28.59 228.54 28.38 224.92 28.15 221.07 C27.93 217.35 27.68 214.22 26.65 210.63 C25.31 205.92 25.22 201.29 24.93 196.41 C24.75 193.06 24.75 193.06 23.65 189.63 C22.32 184.99 22.21 180.45 22 175.63 C21.76 172.12 21.76 172.12 20.68 168.77 C19.46 164.47 19.04 160.33 18.65 155.88 C18.07 149.75 17.32 143.75 16.08 137.7 C15.41 133.68 15.31 129.63 15.19 125.57 C14.92 124.36 14.92 124.36 14.65 123.13 C12.67 121.96 12.67 121.96 10.65 121.13 Z " fill="#000000" transform="translate(691.34765625,94.8671875)"/>
<path d="M0 0 C3.94 2.72 7.7 5.53 11 9 C11 9.99 11 10.98 11 12 C12.49 12.5 12.49 12.5 14 13 C14 13.99 14 14.98 14 16 C14.66 16 15.32 16 16 16 C18.18 20.26 20.16 24.58 22 29 C22.33 29.76 22.67 30.53 23.01 31.32 C25.18 36.45 26.6 41.34 27.57 46.83 C27.95 49.11 27.95 49.11 29.06 51.56 C30.21 54.55 30.42 57.34 30.66 60.52 C30.96 63.17 30.96 63.17 32 66.29 C33.06 70.23 33.36 73.95 33.5 78 C33.75 83.65 34.23 89.15 35.06 94.75 C36.05 101.54 36.21 108.15 36 115 C30.2 119.25 24.67 119.79 17.6 120.56 C14.74 120.91 12.19 121.38 9.44 122.19 C5.83 123.04 3.54 123.04 0 122 C-1.42 119.16 -1.27 116.54 -1.44 113.38 C-1.79 107.94 -2.52 103.22 -4 98 C-4.32 96.34 -4.63 94.67 -4.94 93 C-6.48 85.21 -8.78 76.91 -15.62 72.19 C-16.41 71.8 -17.19 71.4 -18 71 C-18.66 70.67 -19.32 70.34 -20 70 C-25.93 69.48 -29.7 70.4 -35.02 73.03 C-37 74 -37 74 -40 75 C-40.5 76.49 -40.5 76.49 -41 78 C-41.66 78 -42.32 78 -43 78 C-43.37 79.02 -43.37 79.02 -43.75 80.06 C-45 83 -45 83 -46.94 85.94 C-53.9 97.96 -53.33 114.01 -50.07 127.04 C-48.71 130.8 -46.83 133.53 -44.21 136.51 C-43 138 -43 138 -43 140 C-42.01 140.33 -41.02 140.66 -40 141 C-40 141.66 -40 142.32 -40 143 C-39.12 143.18 -39.12 143.18 -38.23 143.36 C-35.9 144.03 -34.33 144.91 -32.31 146.25 C-27.07 149.63 -21.67 152.69 -16.06 155.44 C-7.61 159.75 -0.28 164.94 7 171 C7.59 171.45 8.18 171.91 8.79 172.38 C12.75 175.46 15.31 178.81 18 183 C18 183.66 18 184.32 18 185 C18.66 185 19.32 185 20 185 C21.18 187.22 22.34 189.45 23.5 191.69 C23.83 192.31 24.17 192.94 24.51 193.58 C26.37 197.2 27.44 199.91 27 204 C27.66 204 28.32 204 29 204 C29.12 204.61 29.24 205.23 29.37 205.86 C29.53 206.67 29.7 207.48 29.88 208.31 C30.04 209.11 30.2 209.91 30.37 210.74 C30.94 213.25 30.94 213.25 33 216 C33.42 217.65 33.77 219.32 34.06 221 C34.57 223.79 35.1 226.3 36 229 C36.46 232.4 36.86 235.79 37.25 239.2 C37.61 242.27 38.02 245.05 39 248 C39.34 251.28 39.43 254.58 39.56 257.88 C39.6 258.88 39.65 259.89 39.69 260.93 C40.33 278.24 40.28 295.57 39.62 312.88 C39.59 313.8 39.56 314.73 39.53 315.68 C39.3 320.77 38.49 325.1 37 330 C36.67 333.08 36.5 336.14 36.34 339.23 C36 342.01 35.27 343.54 34 346 C33.61 347.93 33.28 349.87 33 351.81 C30.31 368.83 22.3 390.01 8.31 400.94 C6.88 401.97 5.45 402.99 4 404 C3.44 404.5 2.87 404.99 2.29 405.5 C-4.45 409.9 -11.64 410.48 -19.5 410.38 C-20.39 410.39 -21.27 410.4 -22.18 410.41 C-31.04 410.37 -37.95 407.94 -45.56 403.44 C-46.6 402.84 -47.63 402.24 -48.69 401.62 C-49.45 401.09 -50.22 400.55 -51 400 C-51 399.34 -51 398.68 -51 398 C-51.57 397.76 -52.14 397.52 -52.73 397.27 C-64.93 390.43 -71.17 374.33 -76 362 C-76.37 361.13 -76.74 360.27 -77.12 359.38 C-79.25 354.36 -80.65 349.61 -81.51 344.23 C-81.91 341.97 -81.91 341.97 -83.02 339.99 C-84.12 337.75 -84.33 336.04 -84.5 333.56 C-84.68 330.99 -84.96 329.11 -85.96 326.72 C-87.31 323.19 -87.67 319.66 -88.06 315.94 C-88.52 311.03 -88.52 311.03 -89.49 306.21 C-90.66 301.15 -90.7 295.84 -91.04 290.67 C-91.19 288.51 -91.35 286.34 -91.51 284.18 C-91.61 282.79 -91.7 281.41 -91.79 280.03 C-91.88 278.78 -91.97 277.53 -92.06 276.24 C-92 273.09 -91.81 271.53 -90 269 C-87.67 268.06 -87.67 268.06 -84.75 267.44 C-83.68 267.2 -82.62 266.97 -81.52 266.73 C-80.36 266.49 -79.2 266.25 -78 266 C-76.76 265.71 -75.51 265.41 -74.23 265.11 C-63.43 262.62 -63.43 262.62 -60 264 C-56.7 269.6 -56.4 276.72 -55.94 283.06 C-55.46 289.27 -54.66 294.99 -53 301 C-52.68 302.33 -52.37 303.67 -52.06 305 C-50.41 311.6 -47.7 317.78 -45 324 C-44.33 325.66 -43.66 327.33 -43 329 C-42.34 329 -41.68 329 -41 329 C-38.88 330.87 -38.88 330.87 -37 333 C-37 333.66 -37 334.32 -37 335 C-36.2 335.14 -35.39 335.29 -34.56 335.44 C-32 336 -32 336 -31 337 C-24.75 337.73 -18.76 338.24 -13.5 334.38 C-11.64 332.74 -11.64 332.74 -10 331 C-9.51 330.51 -9.02 330.02 -8.51 329.51 C1.89 318.13 2.18 300.47 2.19 286 C2.2 284.75 2.21 283.51 2.22 282.23 C2.23 276.06 2.06 270.82 0 265 C-0.45 262.33 -0.72 259.69 -1 257 C-1.66 257 -2.32 257 -3 257 C-3.66 255.02 -4.32 253.04 -5 251 C-5.66 251 -6.32 251 -7 251 C-7 250.01 -7 249.02 -7 248 C-7.56 247.75 -8.11 247.5 -8.69 247.25 C-11.4 245.78 -13.6 243.92 -16 242 C-17.31 241.29 -18.64 240.61 -20 240 C-20 239.34 -20 238.68 -20 238 C-20.72 237.9 -21.43 237.8 -22.17 237.7 C-25.39 236.9 -27.49 235.64 -30.25 233.81 C-31.69 232.86 -31.69 232.86 -33.17 231.89 C-34.57 230.95 -34.57 230.95 -36 230 C-37.17 229.25 -37.17 229.25 -38.36 228.48 C-59.25 214.98 -71.52 199.32 -78.32 175.32 C-78.84 173.57 -79.4 171.83 -79.98 170.1 C-83.42 159.61 -84.41 149.39 -84.79 138.45 C-84.89 135.64 -85.13 133.03 -85.52 130.24 C-86.88 120.14 -85.94 109.74 -85.19 99.62 C-85.1 98.45 -85.01 97.27 -84.92 96.06 C-84.13 86.26 -82.71 76.9 -79.97 67.44 C-78.92 63.72 -78.22 60.03 -77.56 56.23 C-77 54 -77 54 -75 51 C-74.33 48.67 -73.66 46.33 -73 44 C-70.89 38.72 -68.36 33.82 -65.56 28.88 C-65.18 28.19 -64.8 27.5 -64.4 26.79 C-62.23 22.92 -60.02 19.29 -57 16 C-56.34 16 -55.68 16 -55 16 C-54.77 15.43 -54.55 14.87 -54.32 14.28 C-50.03 6.85 -40.96 1.67 -33 -1 C-31.7 -1.44 -31.7 -1.44 -30.38 -1.9 C-19.76 -5.18 -9.99 -5.28 0 0 Z " fill="#000000" transform="translate(419,118)"/>
<path d="M0 0 C0.05 7.77 0.08 15.54 0.1 23.31 C0.11 26.92 0.13 30.53 0.15 34.14 C0.17 37.62 0.18 41.1 0.19 44.58 C0.2 46.56 0.21 48.54 0.23 50.51 C0.23 51.71 0.23 52.91 0.23 54.15 C0.23 55.21 0.24 56.27 0.24 57.36 C0 60 0 60 -2 63 C-4.46 63.66 -4.46 63.66 -7.38 64.06 C-11.04 64.58 -13.74 65.28 -17 67 C-18.32 67.36 -19.66 67.67 -21 67.94 C-24.75 68.72 -28.47 69.58 -32.19 70.5 C-33.15 70.74 -34.11 70.97 -35.11 71.22 C-37.05 71.74 -38.98 72.33 -40.89 72.97 C-45.07 74.36 -49.33 75.42 -53.61 76.5 C-56.96 77.37 -59.95 78.36 -63 80 C-68.3 81.66 -73.55 82.79 -79 84 C-79.33 105.45 -79.66 126.9 -80 149 C-64.4 147.53 -64.4 147.53 -55 145 C-53.34 144.79 -51.67 144.61 -50 144.5 C-46.27 144.18 -42.89 143.47 -39.27 142.47 C-35.28 141.64 -31.21 141.54 -27.15 141.34 C-23.97 141.11 -23.97 141.11 -20.97 139.98 C-17.83 138.94 -15.42 138.79 -12.12 138.88 C-11.16 138.89 -10.19 138.91 -9.2 138.93 C-8.47 138.95 -7.75 138.98 -7 139 C-5.69 141.63 -5.87 143.58 -5.87 146.52 C-5.87 147.67 -5.86 148.83 -5.86 150.02 C-5.86 151.9 -5.86 151.9 -5.87 153.81 C-5.87 155.09 -5.87 156.37 -5.86 157.69 C-5.86 160.4 -5.86 163.11 -5.87 165.82 C-5.88 169.3 -5.87 172.78 -5.87 176.25 C-5.86 179.56 -5.86 182.88 -5.87 186.19 C-5.87 187.44 -5.86 188.69 -5.86 189.98 C-5.87 191.71 -5.87 191.71 -5.87 193.48 C-5.87 194.5 -5.87 195.52 -5.87 196.57 C-6 199 -6 199 -7 201 C-9.22 201.39 -9.22 201.39 -12.14 201.6 C-13.72 201.72 -13.72 201.72 -15.33 201.84 C-16.99 201.95 -16.99 201.95 -18.69 202.06 C-20.86 202.22 -23.03 202.38 -25.2 202.54 C-26.65 202.63 -26.65 202.63 -28.13 202.73 C-30.99 202.96 -30.99 202.96 -33.75 203.5 C-38.09 204.17 -42.39 204.34 -46.77 204.54 C-47.59 204.57 -48.41 204.61 -49.26 204.65 C-52.3 204.79 -55.34 204.93 -58.38 205.06 C-68.58 205.53 -68.58 205.53 -79 206 C-79.33 233.39 -79.66 260.78 -80 289 C-76.04 289.33 -72.08 289.66 -68 290 C-67.01 290.33 -66.02 290.66 -65 291 C-63.09 291.19 -61.17 291.34 -59.26 291.46 C-58.11 291.54 -56.96 291.62 -55.77 291.7 C-53.38 291.86 -50.99 292.01 -48.59 292.16 C-42.77 292.56 -37.06 293.09 -31.3 294.04 C-24.67 295.12 -18.15 295.38 -11.45 295.48 C-10.58 295.5 -9.71 295.53 -8.82 295.56 C-8.06 295.57 -7.3 295.59 -6.52 295.6 C-3.02 296.16 -0.21 297.52 3 299 C3.05 306.79 3.08 314.58 3.1 322.37 C3.11 325.98 3.13 329.6 3.15 333.21 C3.17 336.7 3.18 340.19 3.19 343.68 C3.2 345.66 3.21 347.64 3.23 349.63 C3.23 350.83 3.23 352.03 3.23 353.27 C3.23 354.33 3.24 355.39 3.24 356.48 C3 359 3 359 1 361 C-2.96 360.69 -6.24 360.25 -10 359 C-13.21 358.54 -16.42 358.14 -19.64 357.75 C-24.8 357.1 -24.8 357.1 -27 356 C-29.33 355.63 -31.66 355.31 -34 355 C-40.78 354.11 -40.78 354.11 -43 353 C-45.22 352.66 -47.45 352.35 -49.69 352.06 C-54.63 351.38 -59.22 350.47 -64 349 C-70.36 347.56 -76.79 346.53 -83.24 345.56 C-86.02 345 -88.37 344.05 -91 343 C-92.91 342.6 -94.83 342.25 -96.75 341.94 C-101.89 341.11 -101.89 341.11 -103 340 C-105 339.87 -106.99 339.75 -108.99 339.67 C-111 339 -111 339 -112.6 337.18 C-114.73 332.34 -114.43 327.7 -114.41 322.46 C-114.42 321.28 -114.42 320.1 -114.43 318.88 C-114.45 315.61 -114.45 312.33 -114.45 309.06 C-114.45 305.53 -114.47 302 -114.49 298.46 C-114.52 290.74 -114.53 283.02 -114.53 275.3 C-114.54 270.48 -114.55 265.66 -114.56 260.84 C-114.58 247.5 -114.61 234.15 -114.61 220.81 C-114.61 219.95 -114.61 219.1 -114.61 218.22 C-114.61 216.49 -114.61 214.76 -114.61 213.03 C-114.61 212.17 -114.61 211.31 -114.61 210.42 C-114.61 209.56 -114.61 208.7 -114.61 207.82 C-114.61 193.87 -114.65 179.92 -114.7 165.97 C-114.75 151.65 -114.78 137.34 -114.78 123.02 C-114.78 114.98 -114.79 106.94 -114.83 98.9 C-114.87 92.05 -114.87 85.21 -114.85 78.37 C-114.84 74.87 -114.84 71.38 -114.87 67.89 C-114.9 64.11 -114.89 60.32 -114.86 56.54 C-114.88 55.43 -114.9 54.33 -114.92 53.19 C-114.8 45.94 -114.8 45.94 -112.49 43.24 C-110.71 41.93 -109 40.94 -107 40 C-105.99 39.46 -104.97 38.93 -103.93 38.38 C-97.38 35.42 -90.78 32.74 -84.05 30.21 C-81.27 29.11 -78.66 27.88 -76 26.5 C-71.23 24.03 -66.33 22.14 -61.31 20.26 C-54.84 17.8 -48.47 15.08 -42.12 12.31 C-38.47 10.78 -34.75 9.57 -30.99 8.34 C-28.74 7.6 -26.5 6.87 -24.25 6.12 C-23.45 5.86 -22.66 5.6 -21.84 5.33 C-16.79 3.65 -11.88 1.81 -7.04 -0.43 C-4.43 -1.16 -2.62 -0.59 0 0 Z " fill="#000000" transform="translate(308,148)"/>
<path d="M0 0 C7.46 2.79 15.14 7.76 20.79 13.42 C20.79 14.08 20.79 14.74 20.79 15.42 C22.27 15.92 22.27 15.92 23.79 16.42 C23.79 17.08 23.79 17.74 23.79 18.42 C25.27 18.92 25.27 18.92 26.79 19.42 C28.61 21.64 28.61 21.64 30.47 24.36 C31.1 25.25 31.72 26.15 32.36 27.07 C33.79 29.42 33.79 29.42 33.79 31.42 C34.45 31.42 35.11 31.42 35.79 31.42 C42 42.73 42 42.73 44.79 48.42 C45.08 48.99 45.38 49.55 45.68 50.13 C48.24 55.06 50.19 60.02 51.91 65.3 C52.3 66.48 52.3 66.48 52.7 67.68 C54.29 72.59 55.57 77.44 56.42 82.53 C56.75 84.57 56.75 84.57 57.85 86.92 C59.1 90.25 59.21 93.48 59.5 97.01 C59.71 99.57 59.71 99.57 60.85 102.42 C62.2 106.75 61.95 110.93 61.79 115.42 C56.48 118.37 51.87 120.04 45.89 121.03 C43.74 121.33 43.74 121.33 41.79 122.42 C40.08 122.49 38.37 122.51 36.66 122.48 C35.3 122.47 35.3 122.47 33.9 122.46 C32.85 122.44 32.85 122.44 31.79 122.42 C31.14 119.73 30.49 117.05 29.85 114.36 C29.57 113.23 29.57 113.23 29.29 112.08 C28.47 108.6 27.76 105.22 27.27 101.68 C26.82 98.63 26.11 96.24 24.91 93.42 C24.55 92.57 24.19 91.71 23.82 90.84 C23.48 90.04 23.14 89.24 22.79 88.42 C22.31 87.23 21.84 86.03 21.35 84.8 C19.75 81.34 17.88 78.28 15.77 75.12 C14.79 73.42 14.79 73.42 14.79 71.42 C14.13 71.42 13.47 71.42 12.79 71.42 C12.23 70.68 11.67 69.94 11.1 69.17 C7.39 64.76 4.31 62.73 -1.35 62.03 C-6.29 61.87 -10.14 61.96 -14.71 63.92 C-17.46 66.66 -19.28 69.42 -21.14 72.81 C-21.67 73.61 -21.67 73.61 -22.21 74.42 C-22.87 74.42 -23.53 74.42 -24.21 74.42 C-24.3 75.21 -24.38 75.99 -24.46 76.8 C-25.09 79.84 -25.85 82 -27.09 84.8 C-29.56 90.69 -30.54 96.71 -31.6 102.98 C-32.21 106.42 -32.21 106.42 -33.21 109.42 C-33.42 111.48 -33.58 113.53 -33.71 115.59 C-33.8 116.82 -33.88 118.04 -33.96 119.3 C-34.05 120.58 -34.13 121.85 -34.21 123.17 C-34.38 125.69 -34.55 128.2 -34.71 130.72 C-34.82 132.39 -34.82 132.39 -34.93 134.1 C-35.21 137.42 -35.21 137.42 -35.74 140.71 C-36.33 145.32 -36.38 149.83 -36.38 154.46 C-36.39 155.43 -36.39 156.39 -36.39 157.38 C-36.4 159.42 -36.4 161.46 -36.4 163.5 C-36.4 166.55 -36.42 169.6 -36.44 172.65 C-36.47 184.69 -35.79 196.44 -34.43 208.39 C-33.91 213.26 -33.79 218.14 -33.65 223.03 C-33.46 227.79 -32.62 231.83 -31.21 236.42 C-30.84 238.58 -30.51 240.75 -30.21 242.92 C-29.02 250.91 -26.84 257.52 -23.34 264.77 C-22.25 267.34 -21.66 269.68 -21.21 272.42 C-20.55 272.42 -19.89 272.42 -19.21 272.42 C-18.99 273 -18.76 273.58 -18.53 274.17 C-16.85 277.04 -14.9 278.48 -12.21 280.42 C-11.13 281.29 -11.13 281.29 -10.03 282.17 C-5.74 284.08 -1.82 284.04 2.79 283.42 C9.71 280.67 15.9 274.76 18.89 267.87 C19.19 267.06 19.48 266.25 19.79 265.42 C20.44 264.16 21.11 262.91 21.79 261.67 C23.7 257.93 24.64 254.32 25.39 250.21 C25.79 248.42 25.79 248.42 26.79 247.42 C27.14 245.43 27.44 243.43 27.72 241.42 C28.41 236.72 29.26 232.12 30.34 227.5 C31.05 224.16 31.42 220.81 31.79 217.42 C34.88 216.45 36.3 216.2 39.29 217.57 C40.16 218.16 41.02 218.75 41.91 219.36 C42.86 220 43.82 220.65 44.8 221.31 C45.78 222.01 46.77 222.7 47.79 223.42 C48.78 224.12 49.78 224.81 50.8 225.53 C53.5 227.45 56.18 229.37 58.79 231.42 C59.94 232.3 59.94 232.3 61.11 233.2 C63.57 236.46 63.04 238.79 62.66 242.8 C62.55 244.08 62.45 245.37 62.34 246.69 C61.82 250.17 60.94 253.12 59.79 256.42 C59.41 258.39 59.08 260.37 58.79 262.36 C56.57 277.35 50.83 295.51 42.79 308.42 C42.24 309.39 41.7 310.36 41.14 311.36 C38.13 316.7 35.4 321.3 30.79 325.42 C29.92 326.6 29.92 326.6 29.04 327.8 C20.27 338.02 7.15 345.01 -6.21 346.42 C-9.71 346.17 -12.87 345.45 -16.21 344.42 C-17.29 344.13 -17.29 344.13 -18.39 343.83 C-20 343.39 -21.61 342.91 -23.21 342.42 C-23.21 341.76 -23.21 341.1 -23.21 340.42 C-23.9 340.38 -24.58 340.34 -25.28 340.3 C-34.24 337.63 -40.46 327.72 -44.84 319.98 C-45.64 318.47 -46.43 316.95 -47.21 315.42 C-47.86 314.16 -47.86 314.16 -48.53 312.88 C-53.7 302.69 -57.58 292.53 -60.21 281.42 C-60.73 279.3 -61.25 277.17 -61.78 275.05 C-62.03 274.03 -62.27 273.01 -62.53 271.96 C-63.12 269.45 -63.12 269.45 -64.21 267.42 C-64.56 265.09 -64.87 262.76 -65.15 260.42 C-65.7 256.01 -66.32 251.64 -67.28 247.3 C-68.29 242.54 -68.61 237.82 -68.92 232.97 C-69.19 229.7 -69.67 226.56 -70.23 223.33 C-71.64 213.64 -71.5 203.97 -71.48 194.2 C-71.48 192.17 -71.48 190.14 -71.49 188.11 C-71.49 183.87 -71.48 179.64 -71.48 175.4 C-71.46 170.01 -71.47 164.62 -71.48 159.22 C-71.49 155.03 -71.49 150.85 -71.48 146.66 C-71.48 144.67 -71.48 142.68 -71.49 140.7 C-71.51 130.76 -71.37 121.13 -69.7 111.31 C-68.76 105.67 -68.44 99.96 -68 94.26 C-67.55 88.76 -66.64 83.75 -65.21 78.42 C-65.01 76.86 -64.83 75.3 -64.71 73.73 C-64.38 70.27 -63.58 67.64 -62.21 64.42 C-61.88 63.03 -61.57 61.63 -61.28 60.23 C-60.21 55.2 -58.75 50.33 -57.21 45.42 C-57.01 44.71 -56.81 44.01 -56.6 43.28 C-51.94 27.83 -42.69 11.71 -29.21 2.42 C-27.89 2.42 -26.57 2.42 -25.21 2.42 C-25.21 1.76 -25.21 1.1 -25.21 0.42 C-18.73 -2.82 -6.84 -1.79 0 0 Z " fill="#000000" transform="translate(1030.21484375,159.57861328125)"/>
<path d="M0 0 C8.08 5.93 12.27 14.6 14.81 24.06 C15.31 25.05 15.31 25.05 15.81 26.06 C16.18 28.52 16.51 30.97 16.81 33.44 C17.34 38.23 17.34 38.23 18.33 42.93 C19.41 47.72 19 52.8 19 57.69 C19.01 58.83 19.02 59.96 19.04 61.14 C19.05 67.28 18.65 72.94 17.28 78.94 C16.5 82.47 16.37 86.02 16.16 89.62 C15.79 92.19 15.01 93.78 13.81 96.06 C13.39 97.63 13.02 99.22 12.69 100.81 C12.52 101.61 12.35 102.41 12.18 103.23 C12.06 103.84 11.94 104.44 11.81 105.06 C11.15 105.06 10.49 105.06 9.81 105.06 C9.71 106.09 9.61 107.12 9.5 108.19 C8.82 112.01 7.7 114.7 5.81 118.06 C5.15 118.06 4.49 118.06 3.81 118.06 C3.61 118.74 3.4 119.42 3.19 120.12 C0.3 126.29 -4.28 130.78 -10.19 134.06 C-11.18 134.06 -12.17 134.06 -13.19 134.06 C-13.19 134.72 -13.19 135.38 -13.19 136.06 C-13.85 136.72 -14.51 137.38 -15.19 138.06 C-14.69 138.52 -14.2 138.97 -13.69 139.44 C-12.19 141.06 -12.19 141.06 -12.19 143.06 C-11.53 143.06 -10.87 143.06 -10.19 143.06 C-9.69 145.54 -9.69 145.54 -9.19 148.06 C-8.2 148.39 -7.21 148.72 -6.19 149.06 C-3.98 152.23 -2.57 155.48 -1.19 159.06 C-0.57 160.44 0.06 161.81 0.69 163.19 C3.87 170.3 6.4 177.66 8.81 185.06 C9.05 185.74 9.28 186.41 9.53 187.11 C11.13 191.74 12.38 196.3 13.29 201.12 C13.78 203.36 13.78 203.36 15.81 206.06 C16.31 207.95 16.8 209.84 17.25 211.74 C18.69 217.67 20.52 223.42 22.81 229.06 C24.23 233.68 25.32 238.31 26.25 243.05 C26.78 245.35 26.78 245.35 28.81 248.06 C28.89 250.39 28.9 252.73 28.81 255.06 C24.11 256.53 20.39 255.4 15.81 254.06 C14 253.56 12.19 253.06 10.38 252.56 C9.45 252.3 8.52 252.04 7.56 251.77 C5.01 251.11 2.47 250.64 -0.12 250.19 C-3.29 249.5 -4.14 249.11 -6.62 246.81 C-8.28 243.9 -9.26 241.28 -10.19 238.06 C-10.64 236.68 -11.1 235.3 -11.56 233.92 C-12.6 230.81 -13.63 227.71 -14.65 224.6 C-17.02 217.39 -19.41 210.24 -22.32 203.22 C-23.51 200.26 -24.49 197.24 -25.48 194.2 C-29.24 182.85 -34.16 171.89 -39.19 161.06 C-39.68 159.95 -40.18 158.84 -40.69 157.69 C-42.45 154.6 -44.58 152.47 -47.19 150.06 C-48.18 149.07 -48.18 149.07 -49.19 148.06 C-51.92 147.76 -54.57 147.55 -57.31 147.44 C-58.44 147.38 -58.44 147.38 -59.6 147.32 C-61.46 147.23 -63.32 147.14 -65.19 147.06 C-65.18 148.02 -65.18 148.98 -65.17 149.97 C-65.13 158.99 -65.1 168.01 -65.08 177.03 C-65.07 181.66 -65.06 186.3 -65.04 190.94 C-65.01 195.41 -65 199.89 -65 204.36 C-64.99 206.07 -64.99 207.78 -64.98 209.49 C-64.96 211.87 -64.96 214.26 -64.96 216.65 C-64.95 217.36 -64.95 218.07 -64.94 218.8 C-64.95 222.46 -65.1 223.93 -67.19 227.06 C-73.36 226.66 -78.15 225.5 -83.82 223.04 C-85.96 222.16 -88 221.54 -90.25 221 C-91.22 220.69 -92.19 220.38 -93.19 220.06 C-94.34 216.59 -94.31 213.91 -94.31 210.25 C-94.31 209.55 -94.31 208.85 -94.31 208.14 C-94.31 205.8 -94.31 203.46 -94.3 201.12 C-94.3 199.44 -94.3 197.77 -94.3 196.09 C-94.3 191.54 -94.3 186.98 -94.29 182.43 C-94.28 177.67 -94.28 172.92 -94.28 168.16 C-94.28 159.15 -94.27 150.14 -94.26 141.13 C-94.25 130.88 -94.24 120.62 -94.24 110.36 C-94.23 89.26 -94.21 68.16 -94.19 47.06 C-93.01 46.61 -93.01 46.61 -91.81 46.14 C-89.29 45.1 -87.51 43.99 -85.38 42.31 C-84.69 41.78 -84 41.26 -83.3 40.71 C-82.6 40.17 -81.9 39.62 -81.19 39.06 C-76.97 35.79 -72.86 32.81 -68.16 30.25 C-65.61 28.71 -63.26 26.96 -60.88 25.19 C-56.62 22.05 -52.3 19.23 -47.73 16.57 C-44.96 14.93 -42.26 13.19 -39.56 11.44 C-35.22 8.66 -30.84 6.27 -26.19 4.06 C-25.18 3.53 -24.17 2.99 -23.12 2.44 C-15.63 -1.07 -8.02 -2.36 0 0 Z M-33.19 50.06 C-34.84 50.45 -36.51 50.79 -38.19 51.06 C-38.19 51.72 -38.19 52.38 -38.19 53.06 C-39.17 53.31 -40.16 53.55 -41.17 53.81 C-45.54 55.06 -49.42 57.03 -53.44 59.12 C-60.87 62.96 -60.87 62.96 -64.19 64.06 C-65.35 66.39 -65.31 67.73 -65.3 70.33 C-65.3 71.21 -65.3 72.09 -65.3 73 C-65.3 73.95 -65.29 74.9 -65.29 75.88 C-65.28 76.86 -65.28 77.83 -65.28 78.83 C-65.28 81.95 -65.26 85.07 -65.25 88.19 C-65.24 90.3 -65.24 92.41 -65.24 94.52 C-65.23 99.7 -65.21 104.88 -65.19 110.06 C-54.06 113.16 -35.21 106.58 -25.06 101.5 C-24.44 101.03 -23.83 100.55 -23.19 100.06 C-23.19 99.4 -23.19 98.74 -23.19 98.06 C-22.53 98.06 -21.87 98.06 -21.19 98.06 C-15.62 89.04 -13.67 81.17 -13.75 70.56 C-13.73 69.58 -13.71 68.6 -13.69 67.59 C-13.69 60.89 -14.96 55.94 -18.19 50.06 C-18.85 50.06 -19.51 50.06 -20.19 50.06 C-20.19 49.4 -20.19 48.74 -20.19 48.06 C-21.79 48.01 -23.4 47.97 -25 47.94 C-25.89 47.91 -26.79 47.89 -27.71 47.87 C-30.44 47.88 -30.44 47.88 -33.19 50.06 Z " fill="#000000" transform="translate(151.1875,224.9375)"/>
<path d="M0 0 C5.94 1.14 11.22 4.62 16.5 7.44 C17.58 8.01 18.67 8.59 19.78 9.18 C20.84 9.78 21.91 10.38 23 11 C24.04 11.51 25.08 12.01 26.15 12.53 C29.19 15.17 29.42 15.41 29.76 19.13 C29.79 20.84 29.8 22.55 29.77 24.27 C29.78 25.2 29.79 26.14 29.81 27.11 C29.83 30.2 29.82 33.3 29.8 36.39 C29.82 38.54 29.83 40.68 29.85 42.83 C29.88 48.48 29.88 54.13 29.88 59.78 C29.87 65.54 29.91 71.31 29.94 77.07 C29.99 88.38 30.01 99.69 30 111 C31.43 111.49 32.85 111.97 34.28 112.46 C35.08 112.73 35.87 113 36.69 113.28 C39.6 114.19 42.48 114.7 45.5 115.12 C50.9 115.9 50.9 115.9 52 117 C53.72 117.35 55.45 117.65 57.19 117.94 C61.29 118.65 65.08 119.57 69 121 C72.66 122.07 76.3 123.08 80 124 C80 99.91 80 75.82 80 51 C84.9 49.77 85.74 50.53 90 53 C92.34 54.46 94.61 55.99 96.88 57.56 C97.76 58.16 97.76 58.16 98.67 58.77 C100.15 59.79 101.58 60.89 103 62 C103 62.66 103 63.32 103 64 C103.96 64.19 103.96 64.19 104.94 64.38 C105.62 64.58 106.3 64.79 107 65 C108.46 67.92 108.12 70.47 108.12 73.73 C108.12 74.43 108.12 75.13 108.12 75.85 C108.12 78.21 108.12 80.57 108.11 82.92 C108.11 84.61 108.11 86.29 108.11 87.98 C108.11 92.56 108.11 97.15 108.1 101.73 C108.1 106.52 108.09 111.31 108.09 116.09 C108.09 125.16 108.08 134.23 108.07 143.3 C108.06 153.63 108.06 163.95 108.05 174.28 C108.04 195.52 108.02 216.76 108 238 C106.35 238.46 106.35 238.46 104.66 238.94 C101.66 239.81 98.97 240.8 96.12 242.06 C91.49 243.96 87.03 245.05 82 245 C81.34 244.67 80.68 244.34 80 244 C79.67 216.94 79.34 189.88 79 162 C65.86 159.44 65.86 159.44 52.81 158.44 C44.99 158.26 37.86 157.21 30 156 C29.67 191.31 29.34 226.62 29 263 C17.89 267.44 17.89 267.44 11.81 268.61 C9.91 268.94 9.91 268.94 8 270 C6.46 270.07 4.92 270.08 3.38 270.06 C2.56 270.05 1.74 270.04 0.9 270.04 C-0.04 270.02 -0.04 270.02 -1 270 C-2.18 267.64 -2.13 266.25 -2.13 263.62 C-2.13 262.7 -2.14 261.77 -2.14 260.82 C-2.14 259.8 -2.14 258.77 -2.13 257.72 C-2.14 256.64 -2.14 255.56 -2.14 254.44 C-2.15 250.79 -2.15 247.14 -2.15 243.49 C-2.15 240.89 -2.15 238.28 -2.16 235.68 C-2.16 229.32 -2.17 222.96 -2.17 216.6 C-2.17 211.43 -2.17 206.27 -2.17 201.1 C-2.18 186.46 -2.19 171.82 -2.19 157.19 C-2.19 156.4 -2.19 155.61 -2.19 154.79 C-2.19 154 -2.19 153.21 -2.19 152.4 C-2.18 139.58 -2.19 126.76 -2.21 113.94 C-2.22 100.79 -2.23 87.64 -2.23 74.49 C-2.23 67.11 -2.23 59.72 -2.24 52.33 C-2.25 45.39 -2.25 38.44 -2.24 31.5 C-2.24 28.94 -2.25 26.39 -2.25 23.84 C-2.26 20.36 -2.25 16.88 -2.25 13.41 C-2.25 12.39 -2.26 11.37 -2.26 10.31 C-2.26 9.39 -2.25 8.46 -2.25 7.5 C-2.25 6.7 -2.25 5.9 -2.25 5.07 C-2 3 -2 3 0 0 Z " fill="#000000" transform="translate(1117,207)"/>
<path d="M0 0 C5.05 -0.1 10.1 -0.17 15.15 -0.22 C16.86 -0.24 18.57 -0.27 20.29 -0.3 C33.07 -0.56 43.61 0.67 55 7 C55 7.66 55 8.32 55 9 C55.56 9.07 56.11 9.15 56.68 9.23 C59.85 10.28 61.63 12.11 64.06 14.38 C64.92 15.17 65.78 15.96 66.66 16.77 C67.43 17.51 68.2 18.24 69 19 C69.6 19.53 70.19 20.06 70.81 20.6 C72 22 72 22 72 25 C73.49 25.5 73.49 25.5 75 26 C84.22 39.06 85.38 54.65 85.31 70.06 C85.31 71.09 85.31 71.09 85.3 72.13 C85.19 89.77 85.19 89.77 82.12 97 C81.76 97.85 81.4 98.71 81.03 99.59 C80.69 100.39 80.35 101.18 80 102 C79.32 103.76 79.32 103.76 78.62 105.56 C71.89 119.8 60.44 129.81 46 136 C41.32 137.25 36.67 137.18 31.86 137.2 C30.98 137.21 30.1 137.21 29.19 137.22 C27.33 137.23 25.46 137.24 23.6 137.24 C20.77 137.25 17.95 137.28 15.12 137.31 C13.3 137.32 11.49 137.32 9.67 137.33 C8.84 137.34 8 137.35 7.14 137.37 C-1.06 137.33 -7.8 134.87 -15 131 C-15 130.01 -15 129.02 -15 128 C-16.14 127.81 -16.14 127.81 -17.31 127.62 C-20 127 -20 127 -23 125 C-23 124.34 -23 123.68 -23 123 C-23.95 122.77 -24.9 122.55 -25.88 122.31 C-29 121 -29 121 -30.25 118.56 C-30.5 117.72 -30.75 116.87 -31 116 C-32.67 112.96 -32.67 112.96 -35 112 C-35 111.34 -35 110.68 -35 110 C-35.99 109.67 -36.98 109.34 -38 109 C-37.01 108.5 -37.01 108.5 -36 108 C-36 107.34 -36 106.68 -36 106 C-36.66 105.67 -37.32 105.34 -38 105 C-37.5 104.01 -37.5 104.01 -37 103 C-37.66 103 -38.32 103 -39 103 C-43.3 90.92 -45.49 79.67 -45.31 66.81 C-45.32 65.6 -45.32 64.39 -45.32 63.14 C-45.27 54.27 -45.27 54.27 -43 52 C-42.54 49.34 -42.54 49.34 -42.38 46.38 C-42.3 45.37 -42.23 44.37 -42.15 43.34 C-42.1 42.57 -42.05 41.79 -42 41 C-41.01 41 -40.02 41 -39 41 C-39.06 39.72 -39.12 38.44 -39.19 37.12 C-39.29 34.95 -39.29 34.95 -39 33 C-38.01 32.34 -37.02 31.68 -36 31 C-35.64 29.34 -35.3 27.67 -35 26 C-34.34 25.67 -33.68 25.34 -33 25 C-32.67 24.01 -32.34 23.02 -32 22 C-31.01 22 -30.02 22 -29 22 C-28.96 21.28 -28.92 20.56 -28.88 19.81 C-27.16 14.29 -21.71 11.83 -17 9 C-16.67 8.34 -16.34 7.68 -16 7 C-10.88 4.09 -5.85 2.5 0 2 C0 1.34 0 0.68 0 0 Z M13 24 C13 24.66 13 25.32 13 26 C11.21 26.12 11.21 26.12 9.38 26.25 C4.94 26.79 2.43 28.17 -1 31 C-1 31.66 -1 32.32 -1 33 C-1.64 33.25 -2.28 33.5 -2.94 33.75 C-5.19 34.82 -5.19 34.82 -5.75 37.12 C-5.83 37.74 -5.92 38.36 -6 39 C-6.66 39 -7.32 39 -8 39 C-16.19 52.65 -16.18 72.8 -12.81 87.94 C-9.51 98.61 -2.26 106.02 7 112 C10.21 113.32 10.21 113.32 13 114 C13.66 114.33 14.32 114.66 15 115 C24.72 116.05 33.24 113.82 41.31 108.31 C48.88 102.15 53.49 93.17 54.69 83.56 C55.53 72.46 56.04 59.98 54 49 C53.01 48.01 53.01 48.01 52 47 C51.71 46.09 51.42 45.18 51.12 44.25 C48.22 35.86 41.72 29.74 34 25.56 C27.43 22.84 19.96 23.69 13 24 Z " fill="#000000" transform="translate(425,607)"/>
<path d="M0 0 C0.66 0 1.32 0 2 0 C2.99 2.48 2.99 2.48 4 5 C3.01 5.33 2.02 5.66 1 6 C1 7.32 1 8.64 1 10 C0.34 10 -0.32 10 -1 10 C-1.33 10.99 -1.66 11.98 -2 13 C-2.66 13 -3.32 13 -4 13 C-4.33 13.99 -4.66 14.98 -5 16 C-5.66 16 -6.32 16 -7 16 C-7.23 16.54 -7.45 17.07 -7.69 17.62 C-10.59 22.88 -14.38 26.3 -19 30 C-19.92 31.07 -20.81 32.15 -21.69 33.25 C-22.83 34.61 -22.83 34.61 -24 36 C-24.66 36 -25.32 36 -26 36 C-26.33 36.99 -26.66 37.98 -27 39 C-27.66 39 -28.32 39 -29 39 C-29.33 39.99 -29.66 40.98 -30 42 C-31.64 43.69 -33.31 45.35 -35 47 C-36.99 48.95 -38.38 50.67 -40 53 C-39.95 56.29 -39.95 56.29 -39 59 C-37.51 59.5 -37.51 59.5 -36 60 C-34.79 61.82 -34.79 61.82 -33.62 64.12 C-32 67.24 -30.3 70.07 -28.19 72.88 C-26 76 -26 76 -26 79 C-25.34 79 -24.68 79 -24 79 C-23.59 79.89 -23.17 80.77 -22.75 81.69 C-21.16 84.95 -21.16 84.95 -19.12 87.31 C-16.76 90.3 -15.09 93.4 -13.29 96.74 C-12.13 98.78 -10.89 100.62 -9.5 102.5 C-7.13 105.72 -5.23 109.09 -3.32 112.6 C0.16 118.92 3.93 125.05 8 131 C7 133 7 133 4.34 134.11 C0.92 135.02 -1.9 135.24 -5.42 135.23 C-6.61 135.23 -7.8 135.23 -9.03 135.22 C-10.87 135.21 -10.87 135.21 -12.75 135.19 C-13.99 135.19 -15.24 135.19 -16.52 135.19 C-25.72 135.14 -25.72 135.14 -28 134 C-28 133.01 -28 132.02 -28 131 C-28.66 131 -29.32 131 -30 131 C-31.26 129.23 -31.26 129.23 -32.69 126.75 C-33.22 125.84 -33.75 124.92 -34.29 123.98 C-35.14 122.51 -35.14 122.51 -36 121 C-37.17 119 -38.33 117 -39.5 115 C-40.08 114 -40.66 113 -41.26 111.97 C-45.97 103.89 -45.97 103.89 -51 96 C-51 95.01 -51 94.02 -51 93 C-51.66 93 -52.32 93 -53 93 C-53.98 91.25 -54.96 89.5 -55.94 87.75 C-56.48 86.78 -57.03 85.8 -57.59 84.8 C-58.77 82.46 -59.52 80.55 -60 78 C-65.22 79.94 -68.11 81.89 -72 86 C-72.99 86.33 -73.98 86.66 -75 87 C-75.5 88.49 -75.5 88.49 -76 90 C-76.67 90.37 -77.34 90.74 -78.03 91.13 C-80.35 93.33 -80.32 93.89 -80.5 96.98 C-80.52 98.64 -80.52 100.31 -80.5 101.97 C-80.51 102.85 -80.52 103.73 -80.53 104.64 C-80.56 107.44 -80.56 110.25 -80.56 113.06 C-80.57 115.88 -80.58 118.69 -80.6 121.5 C-80.62 123.25 -80.62 125 -80.61 126.75 C-80.63 129.15 -80.63 129.15 -81 133 C-84.42 135.28 -85.67 135.25 -89.69 135.23 C-90.8 135.23 -91.91 135.23 -93.05 135.22 C-94.21 135.21 -95.37 135.2 -96.56 135.19 C-98.31 135.19 -98.31 135.19 -100.08 135.19 C-108.72 135.14 -108.72 135.14 -111 134 C-111.02 116.94 -111.04 99.87 -111.05 82.81 C-111.06 74.89 -111.06 66.97 -111.08 59.04 C-111.09 52.14 -111.09 45.24 -111.09 38.34 C-111.1 34.68 -111.1 31.02 -111.11 27.37 C-111.11 23.29 -111.11 19.21 -111.11 15.14 C-111.12 13.92 -111.12 12.7 -111.12 11.44 C-111.12 10.33 -111.12 9.23 -111.12 8.09 C-111.12 7.13 -111.12 6.16 -111.12 5.17 C-111 3 -111 3 -110 2 C-105.53 1.75 -101.04 1.81 -96.56 1.81 C-95.3 1.8 -94.03 1.79 -92.72 1.78 C-91.52 1.77 -90.31 1.77 -89.07 1.77 C-87.39 1.76 -87.39 1.76 -85.69 1.76 C-83 2 -83 2 -81 4 C-80.72 6.14 -80.72 6.14 -80.68 8.82 C-80.66 9.82 -80.64 10.82 -80.62 11.85 C-80.61 12.93 -80.6 14.02 -80.59 15.13 C-80.57 16.24 -80.55 17.35 -80.53 18.49 C-80.47 22.03 -80.42 25.58 -80.38 29.12 C-80.34 31.52 -80.3 33.92 -80.26 36.32 C-80.16 42.22 -80.08 48.11 -80 54 C-77.37 51.23 -74.75 48.46 -72.12 45.69 C-71.38 44.9 -70.63 44.12 -69.86 43.31 C-69.15 42.55 -68.43 41.79 -67.7 41.01 C-67.04 40.32 -66.38 39.62 -65.7 38.9 C-63.84 36.9 -63.84 36.9 -62 34 C-61.34 34 -60.68 34 -60 34 C-59.67 33.01 -59.34 32.02 -59 31 C-58.34 31 -57.68 31 -57 31 C-56.66 30.2 -56.66 30.2 -56.31 29.38 C-53.42 24.15 -49.64 20.64 -45 17 C-44.01 15.51 -44.01 15.51 -43 14 C-42.34 14 -41.68 14 -41 14 C-40.72 13.43 -40.45 12.85 -40.16 12.26 C-37.99 8.03 -36.01 4.72 -32 2 C-26.51 0.87 -21.15 0.92 -15.56 1 C-14.05 0.99 -12.54 0.98 -11.03 0.96 C-7.35 0.94 -3.68 0.95 0 1 C0 0.67 0 0.34 0 0 Z " fill="#000000" transform="translate(920,608)"/>
<path d="M0 0 C0.68 -0.01 1.37 -0.01 2.07 -0.02 C4.35 -0.04 6.63 -0.05 8.91 -0.06 C9.69 -0.07 10.47 -0.07 11.28 -0.07 C15.41 -0.09 19.55 -0.11 23.68 -0.12 C27.94 -0.13 32.19 -0.16 36.44 -0.2 C39.72 -0.23 43.01 -0.24 46.29 -0.24 C47.85 -0.25 49.42 -0.26 50.99 -0.28 C60.15 -0.38 68 0.17 76.45 4.18 C76.45 4.84 76.45 5.5 76.45 6.18 C77.18 6.41 77.91 6.64 78.66 6.88 C84.52 9.6 89.71 15.88 92.39 21.74 C92.74 22.87 93.09 24.01 93.45 25.18 C93.75 26.12 93.75 26.12 94.06 27.08 C97.64 40.05 96.27 54.72 89.76 66.49 C84.85 74.04 78.59 78.57 70.45 82.18 C69.83 82.51 69.2 82.85 68.56 83.19 C60.3 87.06 48.35 85.29 39.39 85.24 C37.74 85.23 36.1 85.23 34.45 85.23 C30.45 85.21 26.45 85.2 22.45 85.18 C22.46 85.75 22.46 86.32 22.47 86.91 C22.54 92.85 22.58 98.78 22.62 104.72 C22.63 106.94 22.65 109.16 22.68 111.37 C22.71 114.56 22.73 117.74 22.74 120.92 C22.76 121.92 22.78 122.91 22.79 123.94 C22.79 124.86 22.79 125.78 22.79 126.73 C22.8 127.54 22.81 128.35 22.81 129.19 C22.69 129.85 22.57 130.5 22.45 131.18 C19.04 133.45 17.77 133.43 13.76 133.44 C12.1 133.45 12.1 133.45 10.4 133.45 C9.24 133.44 8.08 133.43 6.89 133.43 C5.73 133.43 4.56 133.44 3.37 133.45 C2.26 133.45 1.15 133.45 0.01 133.44 C-1.01 133.44 -2.03 133.44 -3.07 133.44 C-5.55 133.18 -5.55 133.18 -7.55 131.18 C-7.8 128.9 -7.8 128.9 -7.8 126.01 C-7.8 124.91 -7.8 123.82 -7.81 122.69 C-7.8 121.48 -7.8 120.28 -7.79 119.03 C-7.79 117.77 -7.8 116.5 -7.8 115.19 C-7.8 111.71 -7.79 108.24 -7.78 104.76 C-7.78 101.12 -7.78 97.49 -7.78 93.85 C-7.78 87.75 -7.77 81.64 -7.75 75.54 C-7.74 68.47 -7.73 61.41 -7.73 54.34 C-7.73 47.55 -7.73 40.77 -7.72 33.98 C-7.72 31.08 -7.72 28.19 -7.72 25.3 C-7.71 21.26 -7.7 17.23 -7.69 13.19 C-7.69 11.98 -7.69 10.77 -7.69 9.53 C-7.69 8.44 -7.69 7.34 -7.68 6.22 C-7.68 5.26 -7.68 4.31 -7.68 3.32 C-7.4 -1.26 -3.84 0.03 0 0 Z M22.45 24.18 C22.43 29.29 22.41 34.39 22.4 39.5 C22.39 41.24 22.38 42.98 22.38 44.72 C22.36 47.22 22.36 49.71 22.35 52.2 C22.35 52.99 22.34 53.77 22.34 54.57 C22.34 56.44 22.39 58.31 22.45 60.18 C25.26 62.99 33.65 61.49 37.44 61.5 C46.68 61.4 55.17 60.44 62.45 54.18 C65.6 48.67 66.41 43.48 65.45 37.18 C64.36 34.53 63.1 32.55 61.45 30.18 C60.79 30.18 60.13 30.18 59.45 30.18 C59.45 29.52 59.45 28.86 59.45 28.18 C58.89 27.97 58.32 27.77 57.74 27.56 C57 27.29 56.27 27.02 55.51 26.74 C54.78 26.47 54.05 26.21 53.3 25.93 C51.45 25.18 51.45 25.18 50.45 24.18 C48.38 24.09 46.3 24.07 44.23 24.08 C42.34 24.08 42.34 24.08 40.41 24.09 C39.07 24.1 37.73 24.11 36.39 24.11 C35.04 24.12 33.7 24.12 32.36 24.13 C29.05 24.14 25.75 24.16 22.45 24.18 Z " fill="#000000" transform="translate(534.54833984375,609.822998046875)"/>
<path d="M0 0 C4.2 -0.05 8.4 -0.09 12.6 -0.11 C14.03 -0.12 15.45 -0.13 16.88 -0.15 C18.94 -0.18 20.99 -0.19 23.05 -0.2 C24.28 -0.21 25.52 -0.22 26.79 -0.23 C29.84 -0.01 31.51 0.3 34 2 C34.98 3.99 34.98 3.99 35.62 6.31 C35.86 7.12 36.1 7.94 36.35 8.77 C36.56 9.51 36.78 10.24 37 11 C37.35 11.8 37.7 12.61 38.06 13.44 C39.28 16.78 39.84 20.16 40.5 23.64 C41.05 26.24 42 28.54 43 31 C43.25 32.79 43.25 32.79 43.5 34.62 C43.77 38.12 43.77 38.12 46 41 C46.42 42.67 46.76 44.36 47.06 46.06 C47.68 49.65 47.68 49.65 49 53 C49.04 55 49.04 57 49 59 C49.66 59 50.32 59 51 59 C50.96 58.07 50.92 57.14 50.88 56.19 C51 53 51 53 53 50 C53.64 47.66 53.64 47.66 54.06 45.12 C54.3 43.86 54.3 43.86 54.54 42.57 C54.69 41.72 54.84 40.87 55 40 C55.64 36.72 56.33 33.45 57.06 30.19 C57.24 29.4 57.42 28.61 57.6 27.79 C57.73 27.2 57.86 26.61 58 26 C58.66 26 59.32 26 60 26 C59.99 25.23 59.98 24.46 59.96 23.66 C59.96 22.66 59.95 21.66 59.94 20.62 C59.93 19.63 59.91 18.63 59.9 17.6 C60 15 60 15 61 13 C61.66 13 62.32 13 63 13 C63.05 12.23 63.1 11.46 63.15 10.66 C63.22 9.66 63.3 8.66 63.38 7.62 C63.44 6.63 63.51 5.63 63.59 4.6 C64 2 64 2 66 0 C68.95 -0.24 68.95 -0.24 72.69 -0.23 C73.67 -0.23 73.67 -0.23 74.68 -0.23 C76.07 -0.23 77.47 -0.22 78.86 -0.21 C80.99 -0.19 83.12 -0.19 85.26 -0.19 C95.7 -0.15 95.7 -0.15 98 1 C98 32.35 98 63.7 98 96 C78 96 78 96 76 95 C75.67 76.85 75.34 58.7 75 40 C73.78 42.07 73.78 42.07 74 45 C73.34 45 72.68 45 72 45 C72 45.99 72 46.98 72 48 C71.34 48 70.68 48 70 48 C70.01 48.77 70.02 49.54 70.04 50.34 C70.04 51.34 70.05 52.34 70.06 53.38 C70.07 54.37 70.09 55.37 70.1 56.4 C70 59 70 59 69 61 C68.34 61 67.68 61 67 61 C67.01 61.77 67.02 62.54 67.04 63.34 C67.04 64.34 67.05 65.34 67.06 66.38 C67.07 67.37 67.09 68.37 67.1 69.4 C67 72 67 72 66 74 C65.34 74 64.68 74 64 74 C64.03 74.79 64.07 75.57 64.11 76.38 C64.27 82.85 63.94 87.24 61 93 C61 93.99 61 94.98 61 96 C46.93 97.71 46.93 97.71 40 97 C37.59 94.59 37.51 93.3 36.94 90 C36.33 86.38 36.33 86.38 35 83 C34.68 81.23 34.39 79.46 34.12 77.69 C32.67 68.65 30.63 59.76 28 51 C26.95 47.34 25.91 43.69 25 40 C24.97 41.05 24.97 41.05 24.93 42.12 C24.72 48.7 24.49 55.28 24.27 61.85 C24.15 65.23 24.04 68.62 23.93 72 C23.8 75.88 23.67 79.77 23.54 83.65 C23.48 85.48 23.48 85.48 23.42 87.35 C23.38 88.47 23.34 89.59 23.3 90.75 C23.26 91.74 23.23 92.73 23.2 93.75 C23 96 23 96 22 97 C20.6 97.1 19.19 97.13 17.78 97.13 C16.51 97.13 16.51 97.13 15.21 97.14 C14.31 97.13 13.42 97.13 12.5 97.12 C11.61 97.13 10.71 97.13 9.79 97.14 C8.94 97.14 8.09 97.13 7.22 97.13 C6.43 97.13 5.65 97.13 4.84 97.13 C3 97 3 97 2 96 C1.9 93.05 1.87 90.12 1.89 87.17 C1.89 86.24 1.89 85.31 1.89 84.36 C1.89 81.28 1.89 78.2 1.9 75.12 C1.9 72.99 1.91 70.86 1.91 68.74 C1.91 63.12 1.92 57.51 1.93 51.89 C1.94 46.17 1.95 40.44 1.95 34.72 C1.96 23.48 1.98 12.24 2 1 C1.34 0.67 0.68 0.34 0 0 Z " fill="#010101" transform="translate(1174,73)"/>
<path d="M0 0 C13.67 -0.02 27.35 -0.04 41.02 -0.05 C47.37 -0.06 53.72 -0.06 60.06 -0.08 C66.18 -0.09 72.31 -0.09 78.43 -0.09 C80.77 -0.1 83.11 -0.1 85.45 -0.11 C88.72 -0.11 91.98 -0.11 95.25 -0.11 C96.23 -0.12 97.2 -0.12 98.21 -0.12 C99.1 -0.12 99.98 -0.12 100.89 -0.12 C101.67 -0.12 102.44 -0.12 103.24 -0.12 C105 0 105 0 106 1 C106.09 2.63 106.11 4.27 106.1 5.91 C106.09 7.39 106.09 7.39 106.09 8.91 C106.08 10.47 106.08 10.47 106.06 12.06 C106.06 13.11 106.05 14.15 106.05 15.23 C106.04 17.82 106.02 20.41 106 23 C102.83 24.59 99.41 24.12 95.93 24.1 C95.13 24.1 94.34 24.09 93.52 24.09 C90.97 24.09 88.42 24.08 85.88 24.06 C84.15 24.06 82.42 24.05 80.7 24.05 C76.47 24.04 72.23 24.02 68 24 C68 24.55 68.01 25.1 68.01 25.67 C68.07 39.03 68.12 52.39 68.16 65.75 C68.17 72.21 68.19 78.67 68.23 85.13 C68.26 91.36 68.28 97.6 68.28 103.83 C68.29 106.21 68.3 108.59 68.32 110.97 C68.34 114.3 68.34 117.62 68.34 120.95 C68.35 121.94 68.36 122.94 68.37 123.96 C68.37 124.86 68.37 125.77 68.36 126.7 C68.36 127.48 68.37 128.27 68.37 129.08 C68.25 129.72 68.13 130.35 68 131 C64.64 133.24 63.49 133.26 59.56 133.27 C58.5 133.27 57.44 133.27 56.35 133.27 C55.25 133.27 54.14 133.26 53 133.25 C51.89 133.26 50.79 133.27 49.65 133.27 C48.06 133.27 48.06 133.27 46.44 133.27 C45.47 133.26 44.5 133.26 43.5 133.26 C41 133 41 133 38 131 C37.63 129.08 37.63 129.08 37.64 126.7 C37.64 125.79 37.63 124.89 37.63 123.96 C37.64 122.97 37.65 121.97 37.66 120.95 C37.66 119.38 37.66 119.38 37.66 117.79 C37.66 114.32 37.68 110.86 37.71 107.4 C37.71 105 37.72 102.61 37.72 100.21 C37.73 93.89 37.76 87.58 37.79 81.26 C37.82 74.82 37.84 68.38 37.85 61.94 C37.89 49.29 37.94 36.65 38 24 C36.33 24.02 36.33 24.02 34.64 24.03 C30.52 24.07 26.41 24.09 22.3 24.11 C20.52 24.12 18.74 24.13 16.96 24.15 C14.4 24.18 11.85 24.19 9.29 24.2 C8.49 24.21 7.69 24.22 6.87 24.23 C4.91 24.23 2.95 24.12 1 24 C-1 22 -1 22 -1.24 19.97 C-1.24 19.15 -1.23 18.34 -1.23 17.5 C-1.23 16.61 -1.23 15.73 -1.22 14.81 C-1.21 13.88 -1.2 12.96 -1.19 12 C-1.19 11.07 -1.19 10.14 -1.19 9.19 C-1.14 2.28 -1.14 2.28 0 0 Z " fill="#000000" transform="translate(640,610)"/>
<path d="M0 0 C1.13 0.01 2.25 0.01 3.41 0.02 C4.63 0.02 5.84 0.02 7.09 0.03 C8.37 0.03 9.65 0.04 10.97 0.05 C12.25 0.06 13.54 0.06 14.86 0.06 C18.04 0.08 21.23 0.09 24.41 0.11 C25.67 2.65 25.54 4.4 25.54 7.24 C25.55 8.32 25.55 9.41 25.55 10.53 C25.55 11.72 25.55 12.92 25.55 14.15 C25.56 15.41 25.56 16.66 25.56 17.95 C25.57 21.4 25.57 24.85 25.58 28.3 C25.58 31.17 25.58 34.05 25.58 36.93 C25.59 43.71 25.59 50.49 25.59 57.27 C25.59 64.27 25.6 71.28 25.62 78.28 C25.63 84.29 25.64 90.29 25.64 96.3 C25.64 99.89 25.64 103.48 25.65 107.07 C25.66 111.07 25.66 115.08 25.65 119.08 C25.66 120.27 25.66 121.47 25.67 122.7 C25.66 123.79 25.66 124.87 25.66 125.99 C25.66 126.94 25.66 127.88 25.66 128.86 C25.41 131.11 25.41 131.11 23.41 133.11 C20.92 133.37 20.92 133.37 17.81 133.38 C16.7 133.38 15.59 133.38 14.44 133.39 C13.28 133.38 12.11 133.37 10.91 133.36 C9.74 133.37 8.57 133.38 7.37 133.39 C6.26 133.38 5.15 133.38 4 133.38 C2.98 133.38 1.95 133.37 0.9 133.37 C-1.59 133.11 -1.59 133.11 -3.59 131.11 C-3.84 128.84 -3.84 128.84 -3.84 125.94 C-3.84 124.85 -3.85 123.75 -3.85 122.63 C-3.85 121.42 -3.84 120.21 -3.83 118.97 C-3.84 117.7 -3.84 116.44 -3.84 115.13 C-3.85 111.65 -3.84 108.17 -3.83 104.69 C-3.82 101.06 -3.82 97.42 -3.82 93.79 C-3.82 87.68 -3.81 81.58 -3.8 75.48 C-3.78 68.41 -3.78 61.34 -3.78 54.28 C-3.78 47.49 -3.77 40.7 -3.76 33.91 C-3.76 31.02 -3.76 28.13 -3.76 25.23 C-3.76 21.2 -3.75 17.16 -3.74 13.13 C-3.74 11.92 -3.74 10.71 -3.74 9.47 C-3.73 8.37 -3.73 7.28 -3.73 6.16 C-3.72 5.2 -3.72 4.25 -3.72 3.26 C-3.53 0.09 -3.2 0.14 0 0 Z " fill="#000000" transform="translate(763.592041015625,609.886474609375)"/>
<path d="M0 0 C0.7 0 1.41 0 2.13 0.01 C2.87 0 3.61 0 4.37 0 C6.82 -0 9.27 -0 11.73 0 C13.42 0 15.12 0 16.82 -0 C20.38 -0 23.95 0 27.51 0.01 C32.09 0.01 36.66 0.01 41.23 0 C44.74 -0 48.25 -0 51.76 0 C53.45 0 55.13 0 56.82 -0 C59.18 -0 61.53 0 63.89 0.01 C64.59 0 65.29 0 66.01 0 C70.85 0.02 70.85 0.02 73.07 1.14 C73.07 6.09 73.07 11.04 73.07 16.14 C68.65 17.9 66.84 18.38 62.34 18.33 C60.74 18.32 60.74 18.32 59.1 18.31 C57.45 18.29 57.45 18.29 55.76 18.26 C54.64 18.25 53.52 18.24 52.36 18.23 C49.6 18.21 46.84 18.18 44.07 18.14 C44.08 19.11 44.08 20.09 44.08 21.09 C44.1 30.26 44.12 39.43 44.13 48.59 C44.13 53.31 44.14 58.02 44.15 62.73 C44.16 67.28 44.17 71.83 44.17 76.37 C44.17 78.11 44.18 79.85 44.18 81.58 C44.19 84.01 44.19 86.44 44.19 88.86 C44.19 89.59 44.2 90.31 44.2 91.06 C44.19 96.02 44.19 96.02 43.07 97.14 C41.67 97.23 40.26 97.27 38.86 97.27 C37.58 97.27 37.58 97.27 36.28 97.27 C35.39 97.27 34.5 97.26 33.57 97.26 C32.68 97.26 31.79 97.27 30.87 97.27 C30.02 97.27 29.17 97.27 28.29 97.27 C27.51 97.27 26.72 97.27 25.92 97.26 C24.07 97.14 24.07 97.14 23.07 96.14 C22.95 93.73 22.89 91.36 22.87 88.95 C22.86 88.2 22.85 87.45 22.84 86.68 C22.81 84.18 22.78 81.69 22.76 79.19 C22.74 77.47 22.72 75.74 22.7 74.02 C22.64 69.47 22.59 64.92 22.54 60.37 C22.49 55.73 22.44 51.1 22.38 46.46 C22.27 37.35 22.17 28.24 22.07 19.14 C21.33 19.12 20.58 19.1 19.81 19.08 C16.44 18.98 13.07 18.87 9.7 18.76 C8.52 18.73 7.35 18.7 6.14 18.67 C5.02 18.63 3.89 18.59 2.74 18.55 C1.18 18.5 1.18 18.5 -0.4 18.45 C-2.93 18.14 -2.93 18.14 -4.93 16.14 C-5.26 16.14 -5.59 16.14 -5.93 16.14 C-5.95 13.66 -5.97 11.18 -5.99 8.7 C-6 7.64 -6 7.64 -6.01 6.56 C-6.02 4.75 -5.98 2.94 -5.93 1.14 C-4.26 -0.53 -2.23 0.01 0 0 Z " fill="#020202" transform="translate(1095.9252624511719,72.86447143554688)"/>
<path d="M0 0 C0.33 0 0.66 0 1 0 C1 54.12 1 108.24 1 164 C0.67 164 0.34 164 0 164 C0 109.88 0 55.76 0 0 Z " fill="#FDFDFD" transform="translate(1226,276)"/>
<path d="M0 0 C13.86 0 27.72 0 42 0 C42 0.33 42 0.66 42 1 C28.14 1 14.28 1 0 1 C0 0.67 0 0.34 0 0 Z " fill="#FDFDFD" transform="translate(568,534)"/>
<path d="M0 0 C11.55 0 23.1 0 35 0 C35 0.33 35 0.66 35 1 C23.45 1 11.9 1 0 1 C0 0.67 0 0.34 0 0 Z " fill="#FDFDFD" transform="translate(623,534)"/>
<path d="M0 0 C8.91 0 17.82 0 27 0 C27 0.33 27 0.66 27 1 C18.09 1 9.18 1 0 1 C0 0.67 0 0.34 0 0 Z " fill="#FDFDFD" transform="translate(432,745)"/>
<path d="M0 0 C3 1 3 1 3 1 Z " fill="#FDFDFD" transform="translate(923,742)"/>
<path d="" fill="#FDFDFD" transform="translate(0,0)"/>
<path d="" fill="#FDFDFD" transform="translate(0,0)"/>
<path d="" fill="#000000" transform="translate(0,0)"/>
<path d="" fill="#000000" transform="translate(0,0)"/>
<path d="" fill="#000000" transform="translate(0,0)"/>
<path d="" fill="#000000" transform="translate(0,0)"/>
<path d="" fill="#000000" transform="translate(0,0)"/>
<path d="" fill="#000000" transform="translate(0,0)"/>
<path d="" fill="#FDFDFD" transform="translate(0,0)"/>
<path d="" fill="#FDFDFD" transform="translate(0,0)"/>
<path d="" fill="#FDFDFD" transform="translate(0,0)"/>
</svg>
