<?xml version="1.0" encoding="utf-8"?>
<!-- Generator: Adobe Illustrator 26.0.1, SVG Export Plug-In . SVG Version: 6.00 Build 0)  -->
<svg version="1.1" id="Layer_1" xmlns="http://www.w3.org/2000/svg" xmlns:xlink="http://www.w3.org/1999/xlink" x="0px" y="0px"
	 viewBox="0 0 400 400" style="enable-background:new 0 0 400 400;" xml:space="preserve">
<g>
	<g>
		<path d="M388.95,388.09c-1.5,0-2.61,0-3.72,0c-123.23,0-246.45,0-369.68,0c-4.19,0-4.19-0.01-4.19-4.33
			c0-55.69,0.01-111.38,0.01-167.07c0-4.93,0.01-4.92,4.97-4.92c122.5,0,245,0,367.5,0.01c5.81,0,5.09-0.48,5.1,5.24
			c0.02,55.59,0.01,111.17,0.02,166.76C388.95,385.09,388.95,386.41,388.95,388.09z M163.92,299.95c0,20.16,0,40.31,0,60.47
			c0,1.66-0.25,3.38,0.1,4.96c0.19,0.87,1.41,2.18,2.15,2.16c13.68-0.27,27.37-0.36,41.02-1.26c7.26-0.48,14.12-3,19.63-8.34
			c7.37-7.14,9.14-16.43,9.48-25.91c0.59-16.7,0.61-33.43,0.6-50.15c0-6.72-0.37-13.49-1.17-20.16
			c-1.52-12.74-7.48-22.49-20.5-26.07c-5.92-1.63-12.17-2.46-18.32-2.74c-9.64-0.43-19.32-0.09-28.98-0.08c-3.99,0.01-4,0-4,4.15
			C163.91,257.97,163.92,278.96,163.92,299.95z M124.55,301.2c-0.24,0.05-0.48,0.09-0.73,0.14c-0.38-0.66-0.85-1.28-1.14-1.98
			c-2.45-5.82-4.86-11.66-7.31-17.49c-6.41-15.29-12.89-30.55-19.21-45.88c-1.04-2.52-2.42-3.37-5.11-3.22
			c-4.24,0.24-8.52,0.17-12.77,0.02c-2.28-0.08-3.04,0.58-3.04,2.96c0.06,43.01,0.06,86.01-0.01,129.02c0,2.45,0.91,2.97,3.11,2.92
			c5.5-0.12,11.02-0.21,16.51,0.03c3.08,0.13,3.82-0.94,3.81-3.88c-0.11-21.81-0.07-43.63-0.06-65.44c0-1.11,0.13-2.22,0.2-3.33
			c2.85,5.15,4.93,10.33,6.98,15.51c7.14,18.12,14.3,36.23,21.38,54.37c0.81,2.06,1.93,2.85,4.17,2.75
			c4.25-0.18,8.52-0.14,12.77-0.01c2.14,0.06,2.89-0.59,2.88-2.83c-0.1-29.92-0.11-59.83-0.14-89.75
			c-0.01-12.98-0.06-25.97,0.04-38.95c0.02-2.55-0.73-3.47-3.37-3.37c-5.19,0.19-10.39,0.21-15.58-0.01
			c-2.78-0.12-3.48,0.76-3.47,3.5c0.12,20.46,0.07,40.93,0.07,61.39C124.55,298.84,124.55,300.02,124.55,301.2z M286.32,367.64
			c8.54,0,16.22-0.1,23.89,0.06c2.47,0.05,3.18-0.97,3.55-3.17c1.31-7.76,2.86-15.48,4.18-23.23c0.32-1.89,1.13-2.78,3.01-2.78
			c4.26,0.01,8.52-0.01,12.78,0.01c1.67,0.01,2.55,0.69,2.88,2.53c1.3,7.23,2.82,14.43,4.2,21.64c1.16,6.03,0.53,4.87,6,4.93
			c6.93,0.07,13.87,0.02,21.16,0.02c-0.09-1.37-0.03-2.39-0.23-3.35c-1.22-5.87-2.5-11.74-3.77-17.6
			c-8.02-37.04-16.06-74.07-24.02-111.12c-0.42-1.97-1.1-2.82-3.23-2.78c-6.23,0.12-12.47,0.15-18.7-0.01
			c-2.16-0.05-2.91,0.86-3.3,2.73c-2.26,10.63-4.57,21.26-6.86,31.88c-6.15,28.54-12.3,57.08-18.44,85.62
			C288.42,357.72,287.43,362.44,286.32,367.64z M32.18,232.84c0,1.59,0,2.71,0,3.84c0,8.83,0,17.66,0,26.48
			c0,33.55,0.05,67.1-0.07,100.64c-0.01,3.24,0.92,4.04,4.03,3.91c6.22-0.25,12.46-0.07,18.69-0.07c4.44,0,4.45,0,4.45-4.36
			c0-42.17,0-84.34,0-126.5c0-0.62,0.22-1.38-0.05-1.84c-0.48-0.8-1.25-2-1.92-2.01C49.11,232.79,40.92,232.84,32.18,232.84z
			 M250.47,232.97c0,4.65,0,8.99,0,13.34c0,39.27,0.03,78.54-0.04,117.81c0,2.66,0.66,3.66,3.48,3.58
			c6.64-0.19,13.3-0.22,19.94,0.02c3.09,0.11,3.8-0.93,3.79-3.87c-0.09-42.49-0.06-84.98-0.07-127.47c0-1.1-0.11-2.19-0.17-3.4
			C268.37,232.97,259.68,232.97,250.47,232.97z"/>
		<path d="M388.95,65.29c0,12.46-0.06,24.93,0.05,37.39c0.02,2.46-0.78,3.36-3.19,3.28c-3.32-0.11-6.65-0.09-9.97,0
			c-2.55,0.07-3.65-0.75-3.6-3.58c0.17-9.76-0.02-19.53,0.13-29.29c0.04-2.63-0.88-3.4-3.4-3.42c-8.13-0.06-8.13-0.14-8.13,7.95
			c0,8.31-0.08,16.62,0.05,24.92c0.04,2.38-0.66,3.46-3.11,3.4c-3.53-0.09-7.06-0.05-10.59-0.02c-1.97,0.01-2.98-0.58-2.98-2.87
			c0.07-25.24,0.06-50.47,0.01-75.71c0-2.05,0.72-2.75,2.72-2.69c3.63,0.1,7.27,0.13,10.9-0.01c2.32-0.09,3.07,0.77,3.04,3.06
			c-0.1,9.03,0.03,18.07-0.08,27.11c-0.03,2.31,0.64,3.02,2.98,3.01c8.53-0.01,8.53,0.08,8.53-8.37c0-7.27,0.08-14.54-0.05-21.81
			c-0.04-2.35,0.78-3.11,3.06-3.01c3.53,0.15,7.07,0.2,10.59-0.01c2.6-0.15,3.09,0.93,3.07,3.26
			C388.9,40.37,388.95,52.83,388.95,65.29z"/>
		<path d="M285.83,105.78c-5.57,0-10.61,0.11-15.64-0.12c-0.71-0.03-1.68-1.65-1.96-2.69c-2.75-10.51-5.35-21.07-8.08-31.59
			c-0.24-0.94-1.1-1.72-1.68-2.58c-0.4,1.02-1.15,2.04-1.16,3.07c-0.08,9.86-0.02,19.72-0.02,29.59c0,4.39-0.07,4.45-4.58,4.47
			c-3.22,0.01-6.44-0.05-9.65-0.04c-1.97,0.01-2.68-0.85-2.68-2.85c0.05-25.12,0.03-50.25,0.04-75.37c0-1.46-0.1-3.03,2.14-2.96
			c8.17,0.25,16.41-0.08,24.51,0.81c11.13,1.22,17.21,8.46,17.06,19.59c-0.06,4.18-0.45,8.6-1.91,12.44
			c-1.12,2.95-3.89,5.51-6.47,7.57c-1.81,1.45-2.22,2.41-1.52,4.51c3.58,10.71,7.02,21.46,10.5,32.19
			C285.09,102.88,285.34,103.98,285.83,105.78z M257.27,37.37c0,5.61-0.01,11.1,0,16.59c0.01,4.8,0.89,5.55,5.48,3.84
			c1.45-0.54,3.14-2.01,3.56-3.4c0.85-2.81,1.33-5.88,1.2-8.81C267.16,37.07,264.42,36.13,257.27,37.37z"/>
		<path d="M56.79,105.75c-5.47,0-10.51,0.11-15.53-0.12c-0.7-0.03-1.66-1.64-1.93-2.66c-2.6-10.02-5.07-20.08-7.58-30.13
			c-0.18-0.7-0.22-1.49-0.58-2.09c-0.48-0.81-1.21-1.47-1.83-2.2c-0.45,0.9-1.28,1.8-1.29,2.71c-0.09,10.28-0.19,20.56,0.01,30.83
			c0.06,3.1-1,4.03-3.9,3.87c-2.9-0.17-5.82-0.2-8.72,0c-3.09,0.22-4.22-0.86-4.14-4.05c0.19-7.57,0.06-15.16,0.06-22.74
			c0-16.82,0.06-33.64-0.05-50.46c-0.02-3.05,0.8-4.25,4.04-4.08c7.54,0.41,15.16,0.03,22.65,0.84c11.11,1.2,17.34,8.67,17.31,19.84
			c-0.01,2.99-0.25,6.01-0.78,8.95c-0.83,4.59-3.25,8.39-7.34,10.68c-2.48,1.39-2.55,2.81-1.74,5.24
			c3.69,10.99,7.19,22.04,10.75,33.07C56.4,103.85,56.49,104.46,56.79,105.75z M28,47.69c0,2.8-0.11,5.61,0.07,8.39
			c0.05,0.78,0.83,1.98,1.51,2.18c3.29,0.96,7.13-0.77,7.92-4.12c0.83-3.53,1.26-7.37,0.82-10.94c-0.7-5.63-2.31-6.48-7.89-6.27
			c-1.73,0.06-2.46,0.65-2.43,2.36C28.03,42.1,28,44.9,28,47.69z"/>
		<path d="M320.3,57.19c-0.33-5.24-0.47-10-0.98-14.71c-0.45-4.22-2.67-6.55-5.73-6.63c-3.15-0.09-5.41,1.98-6.44,6.04
			c-0.3,1.19-0.52,2.45-0.53,3.67c-0.04,12.98-0.07,25.97,0.02,38.95c0.01,1.92,0.52,3.89,1.08,5.75c0.84,2.84,3.04,4.27,5.88,4.17
			c2.92-0.09,5-1.94,5.38-4.76c0.59-4.5,0.96-9.07,0.88-13.6c-0.05-3.11,0.7-4.3,3.94-4.03c3.3,0.28,6.65-0.07,9.96,0.15
			c0.91,0.06,2.5,1.18,2.5,1.82c0.09,8.74,0.03,17.54-5.22,25.12c-5.01,7.23-12.51,8.93-20.62,8.06
			c-14.27-1.52-19.55-11.04-20.26-23.73c-0.69-12.21-0.57-24.51,0-36.73c0.43-9.33,3.42-17.89,13.11-21.91
			c10.31-4.28,23.96-1.48,29.06,7.63c4.05,7.22,3.96,15.1,3.96,22.96c0,0.59-1.13,1.66-1.75,1.68
			C329.79,57.26,325.05,57.19,320.3,57.19z"/>
		<path d="M199.04,159.32c0-11.4-0.01-22.51,0-33.62c0-4.33,0.03-4.33,4.32-4.34c9.04-0.02,9.04-0.02,9.04,8.96
			c0,21.19,0,42.38-0.01,63.56c0,4.32-0.03,4.39-4.35,4.33c-7.83-0.1-6.25,0.99-9.13-6.37c-4.26-10.9-8.53-21.81-12.82-32.7
			c-0.17-0.44-0.48-0.82-1.1-1.86c0,11.36,0,21.99,0,32.61c0,8.31,0,8.31-8.38,8.34c-0.42,0-0.84-0.04-1.25,0.02
			c-2.92,0.39-3.95-0.7-3.93-3.78c0.13-19.11,0.07-38.22,0.06-57.33c0-4.26,0.1-8.52-0.03-12.77c-0.07-2.35,0.85-3,3.1-3.03
			c8.01-0.11,7.97-0.17,11.09,7.3c4.23,10.13,8.52,20.24,12.79,30.36C198.47,159.06,198.6,159.09,199.04,159.32z"/>
		<path d="M99.01,82.54c5.51-1.09,9.88-1.93,14.24-2.81c2.16-0.44,3.25,0.04,3.25,2.6c0,2.56,0.34,5.18,0.98,7.66
			c0.89,3.46,3.36,5.11,6.04,4.54c2.51-0.54,4.05-3.41,3.64-6.75c-0.63-5.15-2.93-9.49-6.62-13.04
			c-4.86-4.67-10.16-8.92-14.73-13.85c-8.27-8.94-8.65-23.01-0.72-31.15c6.73-6.91,15.29-8.71,24.32-5.54
			c8.1,2.85,12.63,9.11,13.73,17.68c0.47,3.68,0.08,4.03-3.52,4.52c-3.59,0.48-7.18,0.98-10.73,1.64c-2.07,0.38-2.84-0.23-2.88-2.34
			c-0.04-2.16,0-4.48-0.81-6.4c-0.61-1.45-2.47-3.26-3.8-3.29c-1.53-0.03-3.78,1.38-4.52,2.79c-2.27,4.32-0.97,8.61,1.88,12.17
			c2.18,2.73,4.91,5.05,7.58,7.34c6.51,5.59,12.74,11.44,15.43,19.89c2.42,7.61,2.78,15.21-2.73,21.84
			c-9.04,10.89-29.98,10.66-36.62-5.39C100.86,90.93,100.19,86.84,99.01,82.54z"/>
		<path d="M235.13,105.76c-5.14,0-9.98,0.11-14.79-0.13c-0.68-0.03-1.62-1.69-1.85-2.73c-0.85-3.73-1.49-7.52-2.15-11.29
			c-0.34-1.98-1.08-2.95-3.43-2.93c-7.76,0.06-7.76-0.06-9.1,7.61c-0.2,1.12-0.43,2.23-0.62,3.35c-1.09,6.38-1.09,6.37-7.42,6.31
			c-3.17-0.03-6.33,0-10.02,0c1.4-6.64,2.61-12.49,3.87-18.33c4.34-20.03,8.74-40.05,12.99-60.11c0.47-2.22,1.35-2.95,3.5-2.86
			c3.01,0.13,6.03,0.16,9.03-0.01c2.09-0.12,2.97,0.73,3.38,2.66c3.36,15.79,6.77,31.57,10.16,47.35c1.94,9,3.88,18,5.8,27.01
			C234.73,102.86,234.87,104.08,235.13,105.76z M210.91,51.33c-0.15-0.01-0.3-0.03-0.46-0.04c-0.16,0.64-0.38,1.27-0.47,1.92
			c-0.93,6.66-1.77,13.34-2.79,19.98c-0.8,5.17-0.84,5.23,4.37,5.13c0.31-0.01,0.76,0.13,0.91-0.03c0.63-0.64,1.73-1.43,1.66-2.05
			C213.16,67.93,212.01,59.63,210.91,51.33z"/>
		<path d="M360.89,159.96c0,5.71-0.1,11.43,0.05,17.14c0.06,2.14,0.49,4.33,1.14,6.37c0.83,2.61,2.74,4.22,5.64,3.93
			c2.8-0.28,4.67-2.05,5.08-4.73c0.52-3.36,0.69-6.8,0.74-10.21c0.11-7.22-0.45-6.1,6.15-6.2c0.52-0.01,1.04,0,1.56,0
			c7.81,0,8.06,0.01,7.57,7.96c-0.27,4.39-1.03,8.9-2.48,13.04c-3.47,9.89-11.49,12.75-20.42,12.23
			c-13.81-0.81-19.75-9.52-20.32-22.81c-0.49-11.39-0.26-22.83,0.01-34.24c0.15-6.21,1.71-12.25,6.53-16.65
			c6.66-6.08,14.65-6.88,22.98-4.52c8.03,2.28,11.82,8.45,13.08,16.2c0.68,4.17,0.51,8.47,0.76,12.72c0.09,1.6-0.58,2.23-2.19,2.2
			c-3.43-0.06-6.86-0.08-10.28,0.03c-2.13,0.07-2.93-0.69-2.94-2.88c-0.01-3.83-0.11-7.69-0.57-11.48c-0.47-3.8-2.49-5.64-5.41-5.66
			c-3.22-0.02-5.21,1.71-6.04,5.5c-0.37,1.71-0.58,3.48-0.61,5.23C360.84,148.74,360.89,154.35,360.89,159.96z"/>
		<path d="M74.05,159.99c0,7.15-0.21,14.3,0.09,21.44c0.15,3.61,2.81,5.96,5.62,6.03c3,0.07,5.04-1.89,5.77-5.73
			c0.33-1.72,0.52-3.47,0.6-5.22c0.11-2.38,0.1-4.78,0.04-7.16c-0.05-2.17,0.68-3.24,3.07-3.13c3.32,0.16,6.65-0.04,9.96,0.12
			c0.78,0.04,2.16,0.87,2.19,1.39c0.39,8.24,0.29,16.44-4.43,23.71c-4.18,6.45-10.65,8.4-17.78,8.08
			c-15.07-0.68-20.41-10.38-20.98-22.85c-0.51-11.19-0.3-22.43-0.02-33.64c0.15-5.95,1.47-11.87,5.75-16.39
			c6.46-6.81,14.66-7.7,23.26-5.55c8.21,2.06,12.28,8.14,13.57,16.08c0.68,4.16,0.5,8.46,0.78,12.7c0.12,1.88-0.61,2.61-2.51,2.55
			c-3.32-0.1-6.65-0.14-9.97,0c-2.2,0.09-2.89-0.8-2.94-2.9c-0.1-4.03-0.25-8.07-0.71-12.07c-0.32-2.75-1.75-4.85-4.95-5.05
			c-3.22-0.2-5.16,1.46-5.96,4.34c-0.6,2.17-0.95,4.47-1,6.73c-0.14,5.5-0.05,11.01-0.05,16.51
			C73.66,159.99,73.85,159.99,74.05,159.99z"/>
		<path d="M27.01,173.01c0.32,2.84,0.49,5.31,0.91,7.73c0.26,1.51,0.46,3.4,1.44,4.32c1.27,1.19,3.43,2.36,4.94,2.09
			c1.26-0.23,2.87-2.46,3.07-3.96c0.76-5.82-2.06-10.48-6-14.4c-4.77-4.75-10.07-8.99-14.6-13.95c-7.35-8.04-7.65-24.29,3.42-31.29
			c6.52-4.12,13.78-4.93,20.85-1.89c7.12,3.06,10.93,9.03,11.65,16.76c0.1,1.07-0.66,3.09-1.32,3.22c-4.69,0.96-9.47,1.54-14.3,2.26
			c-0.34-2.83-0.45-5.12-0.93-7.32c-0.54-2.45-1.62-4.53-4.77-4.27c-3.12,0.26-3.79,2.47-4.13,4.95c-0.8,5.83,2.23,9.86,6.28,13.47
			c4.02,3.59,8.26,7,11.8,11.02c6.21,7.05,9.21,15.35,6.67,24.76c-2.7,10-13.81,15.32-24.81,12.36
			c-10.56-2.84-14.85-12.76-15.28-20.82c-0.04-0.73,0.57-2.05,1.09-2.17C17.58,174.81,22.22,173.95,27.01,173.01z"/>
		<path d="M95.71,24.69c0,3.93,0,7.41,0,11.41c-4.6,0-9.04,0.15-13.47-0.05c-2.96-0.14-4.03,0.79-3.88,3.85
			c0.24,4.97,0.18,9.97,0.01,14.95c-0.08,2.39,0.77,3.1,3.05,2.95c2.48-0.17,4.99-0.15,7.47,0.06c0.7,0.06,1.83,1.06,1.87,1.68
			c0.19,3.19,0.09,6.4,0.09,10.21c-3.26,0-6.23,0.07-9.21-0.02c-2.3-0.07-3.35,0.6-3.27,3.19c0.18,6.12,0.18,12.25,0,18.37
			c-0.08,2.71,0.96,3.37,3.45,3.29c4.54-0.15,9.08-0.04,13.85-0.04c0,3.82,0,7.29,0,11.04c-1.02,0.12-2.01,0.35-3.01,0.35
			c-9.14,0.02-18.27-0.05-27.41,0.04c-2.51,0.02-3.46-0.79-3.46-3.4c0.08-24.81,0.08-49.63,0.03-74.44c0-2.45,0.61-3.51,3.32-3.47
			C75.19,24.77,85.25,24.69,95.71,24.69z"/>
		<path d="M166.36,57.76c3.52,0,6.62,0.08,9.7-0.03c2.05-0.07,2.66,0.79,2.73,2.76c0.36,9.15,0.4,9.23-8.75,9.2
			c-2.73-0.01-3.89,0.65-3.77,3.68c0.24,5.91,0.21,11.85,0.01,17.76c-0.1,2.84,0.95,3.59,3.6,3.46c3.84-0.19,7.69-0.01,11.53-0.07
			c1.68-0.03,2.49,0.53,2.4,2.33c-0.1,2.18-0.12,4.37,0,6.54c0.1,1.95-0.81,2.55-2.59,2.54c-9.56-0.03-19.12-0.03-28.68,0
			c-2.11,0.01-2.87-0.89-2.86-3.03c0.06-25.04,0.06-50.09,0.01-75.13c0-2.24,0.65-3.13,3.01-3.11c9.45,0.1,18.91,0.07,28.37,0
			c1.94-0.01,2.9,0.51,2.74,2.63c-0.14,1.96-0.16,3.96,0,5.92c0.19,2.28-0.92,2.89-2.93,2.87c-3.95-0.04-7.9,0.01-11.85,0.04
			c-1.4,0.01-2.73,0.04-2.72,2.07C166.39,44.53,166.36,50.86,166.36,57.76z"/>
		<path d="M160.71,153.14c0,3.39,0.14,6.29-0.1,9.16c-0.06,0.68-1.33,1.7-2.12,1.78c-2.36,0.25-4.77,0.17-7.16,0.09
			c-1.77-0.06-2.41,0.71-2.4,2.4c0.04,6.13,0.04,12.26,0.01,18.38c-0.01,1.9,0.91,2.53,2.7,2.49c3.84-0.07,7.69,0.03,11.53-0.03
			c1.68-0.03,2.57,0.57,2.47,2.33c-0.01,0.1,0.01,0.21,0.01,0.31c-0.12,9.36,1.34,8.11-7.63,8.15c-7.17,0.04-14.33-0.05-21.5,0.06
			c-2.32,0.04-3.05-0.81-3.04-3.09c0.06-23.58,0.06-47.15,0-70.73c-0.01-2.23,0.63-3.16,3-3.13c8.72,0.1,17.45,0.1,26.17-0.01
			c2.35-0.03,3.08,0.85,3.04,3.1c-0.2,9.71,1.26,7.8-7.71,8.02c-2.08,0.05-4.16,0.13-6.23-0.02c-2.27-0.17-2.86,0.84-2.82,2.92
			c0.1,4.98,0.1,9.97,0,14.96c-0.04,2.16,0.74,2.99,2.92,2.89C154.61,153.04,157.41,153.14,160.71,153.14z"/>
		<path d="M317.21,132.37c-5.48,0-10.62,0-16.19,0c0,6.68-0.05,12.98,0.1,19.26c0.01,0.52,1.38,1.36,2.17,1.43
			c2.16,0.2,4.36,0.15,6.54,0.04c1.78-0.09,2.59,0.47,2.77,2.38c0.81,8.45,0.65,8.68-7.81,8.71c-1.12,0-2.23,0-3.8,0
			c0,2.39,0,4.43,0,6.47c0,8.1-0.07,16.21,0.04,24.31c0.03,2.44-0.83,3.38-3.24,3.3c-3.32-0.11-6.65-0.05-9.97-0.02
			c-1.92,0.02-2.79-0.75-2.78-2.79c0.04-23.89,0.03-47.79,0-71.68c0-1.71,0.6-2.44,2.35-2.43c9.25,0.04,18.49-0.02,27.74,0.09
			c0.7,0.01,1.96,1,2,1.6C317.32,126.01,317.21,129,317.21,132.37z"/>
		<path d="M244.32,165.85c0,9.66-0.1,19.31,0.06,28.97c0.05,2.82-0.94,3.65-3.59,3.48c-2.79-0.18-5.61-0.19-8.41-0.03
			c-2.68,0.16-3.59-0.76-3.57-3.53c0.11-18.9,0.06-37.79,0.05-56.69c0-4.64,0-4.64-4.53-4.67c-6.66-0.04-6.67-0.04-6.66-6.56
			c0.01-6.08-0.46-5.44,5.6-5.46c9.66-0.02,19.31,0.08,28.97-0.06c2.61-0.04,3.57,0.78,3.27,3.36c-0.17,1.43-0.03,2.9-0.03,4.36
			c0,4.37,0,4.35-4.54,4.38c-7.93,0.05-6.54-0.66-6.61,6.6C244.26,148.62,244.32,157.24,244.32,165.85z"/>
		<path d="M276.6,159.97c0,11.53-0.08,23.07,0.05,34.6c0.03,2.91-0.98,3.89-3.8,3.71c-3.11-0.19-6.23-0.11-9.35-0.05
			c-1.97,0.04-2.82-0.74-2.78-2.76c0.07-3.95,0-7.9,0-11.84c0-19.22,0-38.45,0.01-57.67c0-4.61,0.02-4.61,4.68-4.61
			c2.6,0,5.2,0.12,7.79-0.03c2.58-0.15,3.47,0.85,3.45,3.42C276.55,136.48,276.6,148.23,276.6,159.97z"/>
		<path d="M321.85,159.66c0-11.64,0.06-23.28-0.04-34.91c-0.02-2.51,0.67-3.59,3.34-3.44c3.21,0.19,6.44,0.12,9.66,0.03
			c2-0.05,2.89,0.81,2.86,2.75c-0.01,0.62,0.02,1.25,0.02,1.87c-0.01,22.86-0.07,45.72,0.01,68.57c0.01,2.88-0.91,3.94-3.77,3.76
			c-2.9-0.18-5.82-0.16-8.72-0.01c-2.55,0.13-3.43-0.8-3.41-3.4C321.91,183.14,321.84,171.4,321.85,159.66z"/>
		<path d="M124.59,159.97c0,11.62-0.09,23.25,0.07,34.87c0.04,2.84-0.97,3.61-3.57,3.47c-3-0.17-6.02-0.13-9.02-0.06
			c-2.05,0.05-2.95-0.6-2.95-2.85c0.06-23.76,0.06-47.53,0-71.29c-0.01-2.27,0.92-2.85,2.98-2.78c3.11,0.11,6.23,0.17,9.34-0.02
			c2.46-0.15,3.23,0.69,3.21,3.16C124.52,136.31,124.58,148.14,124.59,159.97z"/>
		<path d="M192.16,299.88c0-14.84-0.01-29.69,0-44.53c0-3.54,0.58-4.03,3.97-3.5c2.34,0.37,4.73,0.57,7.01,1.2
			c3.6,0.99,5.93,3.32,6.24,7.24c0.21,2.58,0.48,5.17,0.49,7.75c0.04,20.97,0.05,41.94,0,62.91c-0.01,3.31-0.26,6.63-0.55,9.93
			c-0.33,3.72-2.65,6.41-6.28,7.1c-2.53,0.48-5.14,0.53-7.7,0.85c-2.45,0.3-3.25-0.69-3.23-3.16c0.1-10.9,0.04-21.8,0.04-32.7
			C192.16,308.6,192.16,304.24,192.16,299.88z"/>
		<path d="M334.35,321.79c-4.97,0-9.27,0-14.08,0c2.26-15.87,4.49-31.51,6.72-47.15c0.31-0.01,0.62-0.02,0.92-0.04
			C330.03,290.19,332.16,305.77,334.35,321.79z"/>
	</g>
</g>
</svg>
